<svg width="323" height="135" viewBox="0 0 323 135" fill="none" xmlns="http://www.w3.org/2000/svg">
<g clip-path="url(#clip0_279_5081)">
<path d="M243.394 58.0612V32.9222C243.394 30.4156 245.436 28.3765 247.948 28.3765H264.424C266.935 28.3765 268.978 30.4156 268.978 32.9222V58.0612C268.978 60.5677 266.935 62.6068 264.424 62.6068H247.948C245.436 62.6068 243.394 60.5677 243.394 58.0612Z" fill="#1C6F37"/>
<path d="M251.831 39.2432H260.541V37.0698H251.831V39.2432Z" fill="#3F3D56"/>
<path d="M254.008 35.4399H258.363V28.3765H254.008V35.4399Z" fill="#3F3D56"/>
<path d="M254.008 62.6069H258.363V55.5435H254.008V62.6069Z" fill="#3F3D56"/>
<path d="M231.69 59.0775H206.503C203.992 59.0775 201.949 57.0384 201.949 54.5318V38.0862C201.949 35.5796 203.992 33.5405 206.503 33.5405H231.69C234.201 33.5405 236.244 35.5796 236.244 38.0862V54.5318C236.244 57.0384 234.201 59.0775 231.69 59.0775Z" fill="#1C6F37"/>
<path d="M223.996 37.0723H215.286V39.2456H223.996V37.0723Z" fill="#3F3D56"/>
<path d="M209.026 48.4825V44.1357H201.95V48.4825H209.026Z" fill="#3F3D56"/>
<path d="M236.244 48.4825V44.1357H229.167V48.4825H236.244Z" fill="#3F3D56"/>
<path d="M27.3843 106.086L23.1798 81.6054C21.3114 70.7273 29.3778 60.661 40.4205 60.0901L100.361 56.9915L114.666 33.4582C116.563 30.3383 119.953 28.4331 123.609 28.4331H166.678C170.064 28.4331 172.924 30.9389 173.363 34.2894L174.457 53.1197L281.832 53.4406L295.34 97.8721L282.802 97.2619L283.445 110.739L267.049 111.381L261.584 95.9553C260.554 93.0507 256.045 89.7757 251.357 87.0356C240.849 80.8928 227.348 82.8644 219.396 92.07C217.52 94.2416 216.209 96.5043 215.842 98.6259L213.362 112.985L93.1274 111.06L77.3695 89.0583C72.714 84.0014 50.7368 82.144 48.7576 89.0583L36.8681 106.567L27.3843 106.086Z" fill="#E6E6E6"/>
<path d="M158.066 42.753L161.603 59.3982L116.596 60.3609L126.101 39.9897C126.964 38.1417 128.857 36.9944 130.897 37.0829L152.464 38.0189C155.195 38.1373 157.499 40.0846 158.066 42.753Z" fill="white"/>
<path d="M110.487 59.0772L119.489 35.9739L117.132 33.6216L102.45 55.8684L105.433 60.3608L110.487 59.0772Z" fill="white"/>
<path d="M239.401 134.163C251.12 134.163 260.619 124.682 260.619 112.985C260.619 101.289 251.12 91.8071 239.401 91.8071C227.683 91.8071 218.184 101.289 218.184 112.985C218.184 124.682 227.683 134.163 239.401 134.163Z" fill="#3F3D56"/>
<path d="M224.774 112.985C224.774 104.935 231.336 98.3853 239.402 98.3853C247.467 98.3853 254.029 104.935 254.029 112.985C254.029 121.036 247.467 127.585 239.402 127.585C231.336 127.585 224.774 121.036 224.774 112.985ZM225.096 112.985C225.096 120.859 231.513 127.264 239.402 127.264C247.29 127.264 253.708 120.859 253.708 112.985C253.708 105.112 247.29 98.7061 239.402 98.7061C231.513 98.7061 225.096 105.112 225.096 112.985Z" fill="white"/>
<path d="M226.864 112.985C226.864 119.896 232.478 125.499 239.402 125.499C246.326 125.499 251.94 119.896 251.94 112.985C251.94 106.074 246.326 100.471 239.402 100.471C232.478 100.471 226.864 106.074 226.864 112.985ZM247.552 109.988L245.331 111.433L244.477 110.126L247.552 109.988ZM244.17 117.338L244.762 115.894L246.624 118.34L244.17 117.338ZM238.482 122.291L240.045 119.644V122.291H238.482ZM238.482 106.968L240.045 104.321V106.968H238.482ZM231.537 118.34L233.399 115.894L233.991 117.338L231.537 118.34ZM230.609 109.988L233.684 110.126L232.831 111.433L230.609 109.988Z" fill="#E6E6E6"/>
<path d="M61.3008 134.163C73.0191 134.163 82.5186 124.682 82.5186 112.985C82.5186 101.289 73.0191 91.8071 61.3008 91.8071C49.5825 91.8071 40.083 101.289 40.083 112.985C40.083 124.682 49.5825 134.163 61.3008 134.163Z" fill="#3F3D56"/>
<path d="M46.6738 112.985C46.6738 104.935 53.2356 98.3853 61.3013 98.3853C69.3669 98.3853 75.9287 104.935 75.9287 112.985C75.9287 121.036 69.3669 127.585 61.3013 127.585C53.2356 127.585 46.6738 121.036 46.6738 112.985ZM46.9953 112.985C46.9953 120.859 53.4129 127.264 61.3013 127.264C69.1897 127.264 75.6072 120.859 75.6072 112.985C75.6072 105.112 69.1897 98.7061 61.3013 98.7061C53.4129 98.7061 46.9953 105.112 46.9953 112.985Z" fill="white"/>
<path d="M48.7627 112.985C48.7627 119.896 54.3761 125.499 61.3005 125.499C68.2249 125.499 73.8383 119.896 73.8383 112.985C73.8383 106.074 68.2249 100.471 61.3005 100.471C54.3761 100.471 48.7627 106.074 48.7627 112.985ZM69.4505 109.988L67.229 111.433L66.3756 110.126L69.4505 109.988ZM66.0686 117.338L66.6602 115.894L68.5229 118.34L66.0686 117.338ZM60.3803 122.291L61.9435 119.644V122.291H60.3803ZM60.3803 106.968L61.9435 104.321V106.968H60.3803ZM53.4351 118.34L55.2979 115.894L55.8895 117.338L53.4351 118.34ZM52.5075 109.988L55.5825 110.126L54.729 111.433L52.5075 109.988Z" fill="#E6E6E6"/>
<path d="M149.87 67.9014H162.086V65.3343H149.87V67.9014Z" fill="#3F3D56"/>
<path d="M322.057 118.294C321.943 117.946 321.08 118.1 320.997 117.788C320.914 117.478 321.742 117.219 322.378 116.345C322.492 116.188 323.214 115.195 322.937 114.777C322.412 113.986 318.762 115.957 317.885 114.851C317.693 114.608 317.614 114.192 317.041 113.416C316.813 113.108 316.667 112.959 316.492 112.963C316.244 112.969 316.156 113.279 315.766 113.84C315.182 114.68 314.971 114.575 314.586 115.264C314.3 115.775 314.266 116.102 314.06 116.121C313.768 116.149 313.648 115.512 313.292 115.487C312.928 115.462 312.564 116.091 312.384 116.583C312.045 117.505 312.255 118.211 312.301 118.913C312.352 119.677 312.233 120.795 311.402 122.23L303.561 134.7C305.245 132.158 310.025 125.226 311.951 122.683C312.507 121.949 313.104 121.212 314.024 121.073C314.909 120.94 315.987 121.377 317.49 121.351C317.666 121.348 318.155 121.334 318.274 121.075C318.372 120.862 318.128 120.676 318.217 120.475C318.336 120.205 318.871 120.321 319.601 120.142C320.116 120.016 320.466 119.807 320.767 119.628C320.857 119.574 322.208 118.757 322.057 118.294Z" fill="#F2F2F2"/>
<path d="M301.518 121.206C301.315 121.161 301.141 121.628 300.964 121.579C300.788 121.53 300.899 121.049 300.653 120.486C300.608 120.384 300.328 119.744 300.043 119.76C299.503 119.788 299.419 122.145 298.622 122.256C298.447 122.28 298.219 122.198 297.673 122.255C297.455 122.278 297.34 122.306 297.291 122.393C297.223 122.517 297.35 122.649 297.513 123.002C297.758 123.531 297.645 123.604 297.873 123.991C298.042 124.279 298.193 124.39 298.143 124.496C298.072 124.647 297.724 124.522 297.609 124.69C297.492 124.86 297.696 125.22 297.886 125.45C298.242 125.882 298.649 125.983 299.008 126.163C299.398 126.359 299.914 126.739 300.38 127.561L304.249 135C303.485 133.442 301.455 129.1 300.761 127.423C300.56 126.938 300.37 126.433 300.567 125.942C300.757 125.47 301.283 125.069 301.704 124.325C301.753 124.238 301.887 123.994 301.795 123.861C301.718 123.751 301.556 123.817 301.483 123.716C301.385 123.58 301.596 123.351 301.719 122.941C301.805 122.653 301.804 122.421 301.802 122.222C301.802 122.162 301.79 121.265 301.518 121.206Z" fill="#F2F2F2"/>
<path d="M305.379 123.021L305.501 121.9L305.575 121.829C305.92 121.504 306.136 121.159 306.217 120.804C306.23 120.748 306.24 120.69 306.25 120.632C306.291 120.402 306.341 120.115 306.563 119.818C306.687 119.652 307.016 119.277 307.354 119.408C307.446 119.442 307.508 119.502 307.551 119.564C307.561 119.553 307.572 119.543 307.584 119.531C307.731 119.389 307.833 119.337 307.932 119.287C308.007 119.248 308.086 119.209 308.218 119.103C308.276 119.056 308.323 119.015 308.362 118.98C308.481 118.874 308.633 118.75 308.841 118.799C309.062 118.859 309.138 119.069 309.188 119.208C309.278 119.457 309.306 119.628 309.324 119.741C309.331 119.782 309.338 119.829 309.344 119.844C309.392 119.966 309.999 119.997 310.227 120.01C310.741 120.038 311.185 120.062 311.292 120.413C311.368 120.664 311.209 120.937 310.803 121.248C310.677 121.345 310.551 121.411 310.441 121.461C310.508 121.525 310.562 121.612 310.566 121.73C310.573 122.01 310.285 122.225 309.711 122.369C309.568 122.406 309.376 122.454 309.125 122.442C309.006 122.436 308.903 122.418 308.814 122.401C308.801 122.451 308.777 122.503 308.733 122.553C308.605 122.699 308.399 122.736 308.119 122.654C307.809 122.568 307.564 122.451 307.349 122.348C307.16 122.258 306.998 122.182 306.861 122.161C306.608 122.125 306.371 122.282 306.088 122.49L305.379 123.021Z" fill="#F2F2F2"/>
<path d="M307.402 116.637L306.285 116.804L306.198 116.75C305.795 116.499 305.406 116.378 305.042 116.39C304.984 116.392 304.926 116.397 304.867 116.401C304.633 116.421 304.343 116.445 303.998 116.306C303.806 116.228 303.36 116.006 303.401 115.646C303.41 115.549 303.452 115.474 303.502 115.417C303.489 115.409 303.475 115.401 303.461 115.393C303.286 115.288 303.21 115.202 303.136 115.119C303.08 115.056 303.022 114.99 302.885 114.889C302.826 114.845 302.773 114.811 302.73 114.782C302.597 114.694 302.438 114.578 302.433 114.365C302.435 114.136 302.62 114.01 302.742 113.926C302.96 113.776 303.118 113.706 303.223 113.66C303.262 113.643 303.305 113.624 303.318 113.614C303.424 113.537 303.3 112.943 303.255 112.719C303.152 112.217 303.062 111.782 303.375 111.59C303.599 111.452 303.905 111.537 304.309 111.849C304.434 111.947 304.531 112.052 304.607 112.145C304.652 112.064 304.722 111.99 304.836 111.957C305.105 111.878 305.386 112.102 305.672 112.62C305.744 112.748 305.839 112.921 305.891 113.167C305.916 113.283 305.924 113.388 305.93 113.477C305.983 113.477 306.039 113.487 306.098 113.517C306.272 113.603 306.361 113.793 306.352 114.085C306.347 114.405 306.296 114.671 306.251 114.906C306.212 115.11 306.179 115.287 306.193 115.424C306.223 115.678 306.435 115.866 306.708 116.087L307.402 116.637Z" fill="#F2F2F2"/>
<path d="M307.554 113.289L307.675 112.168L307.75 112.097C308.095 111.772 308.311 111.427 308.392 111.072C308.405 111.016 308.415 110.958 308.425 110.9C308.465 110.67 308.516 110.383 308.738 110.086C308.862 109.92 309.19 109.545 309.529 109.676C309.621 109.711 309.683 109.77 309.725 109.832C309.736 109.822 309.747 109.811 309.759 109.799C309.905 109.657 310.008 109.605 310.106 109.555C310.182 109.516 310.261 109.477 310.393 109.371C310.451 109.324 310.498 109.283 310.537 109.248C310.656 109.142 310.808 109.018 311.016 109.067C311.237 109.127 311.313 109.337 311.363 109.477C311.453 109.725 311.48 109.896 311.499 110.009C311.505 110.05 311.513 110.097 311.519 110.112C311.567 110.234 312.174 110.265 312.402 110.278C312.916 110.306 313.36 110.33 313.467 110.681C313.543 110.932 313.383 111.206 312.978 111.516C312.852 111.613 312.726 111.679 312.616 111.729C312.683 111.793 312.737 111.88 312.74 111.998C312.748 112.278 312.46 112.493 311.886 112.637C311.743 112.674 311.551 112.722 311.299 112.71C311.181 112.704 311.077 112.686 310.989 112.669C310.976 112.719 310.952 112.771 310.908 112.821C310.78 112.967 310.574 113.004 310.293 112.922C309.984 112.836 309.739 112.719 309.523 112.616C309.335 112.526 309.172 112.45 309.036 112.429C308.783 112.393 308.546 112.55 308.263 112.758L307.554 113.289Z" fill="#F2F2F2"/>
<path d="M303.931 134.764L303.733 134.569L303.459 134.54C303.46 134.514 303.458 134.454 303.456 134.36C303.446 133.844 303.413 132.275 303.632 129.864C303.785 128.181 304.04 126.473 304.391 124.785C304.743 123.096 305.107 121.838 305.4 120.828C305.622 120.065 305.845 119.342 306.063 118.638C306.644 116.757 307.193 114.98 307.533 112.952C307.609 112.5 307.767 111.558 307.444 110.446C307.256 109.801 306.935 109.194 306.488 108.643L306.92 108.294C307.413 108.904 307.768 109.576 307.977 110.292C308.336 111.525 308.163 112.551 308.081 113.044C307.735 115.107 307.18 116.902 306.593 118.801C306.376 119.503 306.154 120.223 305.934 120.982C305.643 121.983 305.282 123.229 304.935 124.898C304.588 126.565 304.336 128.252 304.184 129.914C303.968 132.295 304.001 133.84 304.011 134.348C304.017 134.619 304.018 134.676 303.931 134.764Z" fill="#F2F2F2"/>
<path d="M305.303 109.281C305.281 109.276 305.259 109.27 305.236 109.263C304.781 109.136 304.415 108.765 304.149 108.162C304.025 107.878 303.996 107.579 303.937 106.984C303.928 106.892 303.888 106.427 303.937 105.812C303.97 105.409 304.013 105.248 304.123 105.121C304.245 104.979 304.409 104.898 304.582 104.858C304.587 104.804 304.605 104.752 304.639 104.703C304.782 104.498 305.021 104.582 305.15 104.626C305.216 104.65 305.297 104.679 305.388 104.695C305.532 104.719 305.618 104.694 305.748 104.657C305.873 104.621 306.027 104.576 306.241 104.58C306.663 104.585 306.975 104.775 307.078 104.837C307.62 105.162 307.808 105.681 308.024 106.282C308.067 106.402 308.21 106.838 308.244 107.398C308.268 107.803 308.214 107.968 308.154 108.087C308.029 108.33 307.839 108.443 307.366 108.68C306.873 108.929 306.625 109.053 306.422 109.117C305.949 109.265 305.652 109.358 305.303 109.281Z" fill="#F2F2F2"/>
<path d="M0 134.282C0 134.494 0.297461 134.664 0.667882 134.664H319.504C319.875 134.664 320.172 134.494 320.172 134.282C320.172 134.07 319.875 133.9 319.504 133.9H0.667882C0.297461 133.9 0 134.07 0 134.282Z" fill="#CCCCCC"/>
<path d="M162.008 131.871L166.471 131.871L168.595 114.686L162.007 114.686L162.008 131.871Z" fill="#FFB6B6"/>
<path d="M177.301 131.77C177.44 132.003 177.514 132.758 177.514 133.029C177.514 133.864 176.835 134.541 175.999 134.541L162.175 134.541C161.604 134.541 161.142 134.08 161.142 133.51V132.935C161.142 132.935 160.458 131.209 161.866 129.081C161.866 129.081 163.616 130.747 166.23 128.137L167.001 126.743L172.583 130.817L175.676 131.198C176.353 131.281 176.953 131.185 177.301 131.77Z" fill="#2F2E41"/>
<path d="M141.953 131.871L146.417 131.871L148.54 114.686L141.952 114.686L141.953 131.871Z" fill="#FFB6B6"/>
<path d="M157.247 131.77C157.386 132.003 157.459 132.758 157.459 133.029C157.459 133.864 156.781 134.541 155.944 134.541L142.12 134.541C141.55 134.541 141.087 134.08 141.087 133.51V132.935C141.087 132.935 140.403 131.209 141.811 129.081C141.811 129.081 143.561 130.747 146.176 128.137L146.947 126.743L152.528 130.817L155.621 131.198C156.298 131.281 156.898 131.185 157.247 131.77Z" fill="#2F2E41"/>
<path d="M161.302 14.528L162.149 22.4222L152.263 21.5764L153.957 14.2461L161.302 14.528Z" fill="#FFB6B6"/>
<path opacity="0.1" d="M161.302 14.528L162.149 22.4222L152.263 21.5764L153.957 14.2461L161.302 14.528Z" fill="black"/>
<path d="M157.77 15.5149C161.358 15.5149 164.267 12.6117 164.267 9.03039C164.267 5.4491 161.358 2.5459 157.77 2.5459C154.182 2.5459 151.273 5.4491 151.273 9.03039C151.273 12.6117 154.182 15.5149 157.77 15.5149Z" fill="#FFB6B6"/>
<path d="M162.007 19.1801L172.882 25.5236L169.319 42.7216L171.752 65.8402L170.057 122.509L159.606 121.381L158.194 73.1705L150.002 123.073H139.854L141.528 69.2234L146.613 46.3867L143.506 21.5765L152.968 18.6162L162.007 19.1801Z" fill="#2F2E41"/>
<path d="M162.431 10.8629C162.431 10.8629 162.996 8.88934 164.267 9.03031C165.538 9.17128 165.821 8.04354 165.538 7.47967C165.256 6.9158 164.691 4.09646 164.691 4.09646C164.691 4.09646 164.973 2.12291 163.278 1.84098C161.584 1.55905 161.019 1.27711 160.736 0.713244C160.454 0.149374 156.217 -0.414493 154.804 0.431309C153.392 1.27711 152.262 2.8999 151.274 3.35721C150.285 3.81452 149.438 4.66033 150.003 6.07C150.568 7.47967 151.387 10.2367 151.387 10.2367C151.387 10.2367 152.827 9.73514 153.11 10.5809C153.392 11.4268 152.262 10.299 153.675 8.04354C155.087 5.78807 155.087 3.53259 157.347 4.37839C159.606 5.2242 162.149 4.94226 161.866 6.63387C161.584 8.32547 162.431 10.8629 162.431 10.8629Z" fill="#2F2E41"/>
<path d="M167.275 60.7825C165.915 62.2194 165.556 64.0843 166.472 64.9478C167.388 65.8113 169.233 65.3463 170.593 63.9087C171.144 63.3419 171.551 62.6516 171.78 61.8956L177.464 55.7348L174.51 53.1343L169.221 59.4838C168.478 59.7553 167.81 60.2007 167.275 60.7825Z" fill="#FFB6B6"/>
<path d="M172.768 25.3823L182.339 41.6584L183.757 49.0888L174.54 60.7651L170.641 55.8115L175.249 49.0888L167.805 35.9972L172.768 25.3823Z" fill="#2F2E41"/>
<path d="M145.857 59.2672V40.0768C145.857 37.1519 148.241 34.7725 151.172 34.7725H180.561C183.492 34.7725 185.876 37.1519 185.876 40.0768V59.2672C185.876 62.1921 183.492 64.5716 180.561 64.5716H151.172C148.241 64.5716 145.857 62.1921 145.857 59.2672Z" fill="#1C6F37"/>
<path d="M160.15 46.8848H170.313V44.3487H160.15V46.8848Z" fill="#3F3D56"/>
<path d="M169.48 64.4018V59.3296H161.223V64.4018H169.48Z" fill="#3F3D56"/>
<path d="M169.868 40.0146V34.9424H161.61V40.0146H169.868Z" fill="#3F3D56"/>
<path d="M148.832 57.1175C150.191 58.5544 150.551 60.4193 149.634 61.2828C148.718 62.1463 146.873 61.6813 145.513 60.2437C144.962 59.6769 144.555 58.9866 144.326 58.2305L138.643 52.0698L141.596 49.4692L146.885 55.8187C147.629 56.0903 148.296 56.5356 148.832 57.1175Z" fill="#FFB6B6"/>
<path d="M143.338 21.7173L133.767 37.9934L132.349 45.4237L141.565 57.1001L145.465 52.1465L140.856 45.4237L148.301 32.3321L143.338 21.7173Z" fill="#2F2E41"/>
<path d="M24.3255 99.3265C29.1194 99.3265 33.0055 95.9504 33.0055 91.7858C33.0055 87.6212 29.1194 84.2451 24.3255 84.2451C19.5317 84.2451 15.6455 87.6212 15.6455 91.7858C15.6455 95.9504 19.5317 99.3265 24.3255 99.3265Z" fill="#E6E6E6"/>
</g>
<defs>
<clipPath id="clip0_279_5081">
<rect width="323" height="135" fill="white"/>
</clipPath>
</defs>
</svg>
