<svg width="353" height="163" viewBox="0 0 353 163" fill="none" xmlns="http://www.w3.org/2000/svg">
<g clip-path="url(#clip0_623_3927)">
<path d="M74.8616 153.93C66.4096 148.417 60.2642 138.507 61.5219 128.488C69.1325 136.397 79.2927 141.357 90.205 142.49C94.415 142.911 99.1414 142.941 102.131 145.938C103.991 147.803 104.782 150.528 104.823 153.162C104.863 155.797 104.231 158.391 103.602 160.95L103.757 161.589C93.6752 161.216 83.3137 159.443 74.8616 153.93Z" fill="#F0F0F0"/>
<path d="M61.7331 128.485C64.8948 136.221 70.4113 142.763 77.4991 147.182C79.008 148.161 80.6617 148.895 82.399 149.358C84.1061 149.754 85.8879 149.686 87.5596 149.16C89.128 148.7 90.6793 148.049 92.332 147.979C93.1785 147.956 94.0203 148.112 94.8022 148.438C95.5841 148.763 96.2885 149.251 96.8691 149.868C98.3557 151.367 99.2153 153.312 99.9899 155.243C100.85 157.388 101.709 159.629 103.461 161.217C103.673 161.409 103.362 161.728 103.151 161.535C100.103 158.772 99.7676 154.339 97.3722 151.133C96.2545 149.638 94.6796 148.47 92.7542 148.421C91.0706 148.377 89.4704 149.048 87.8863 149.527C86.2631 150.064 84.5331 150.195 82.8476 149.909C81.0923 149.536 79.4131 148.866 77.8821 147.93C74.4017 145.875 71.2657 143.286 68.5888 140.257C65.5145 136.817 63.0508 132.876 61.3044 128.604C61.1964 128.339 61.6258 128.223 61.7331 128.485Z" fill="#83F7A9"/>
<path d="M75.133 145.894C74.2308 146.984 72.9711 147.717 71.5787 147.962C70.1864 148.208 68.752 147.951 67.5319 147.236C67.2855 147.09 67.4999 146.7 67.7466 146.846C68.8815 147.514 70.2176 147.753 71.5137 147.522C72.8098 147.29 73.9806 146.603 74.8146 145.583C74.9962 145.362 75.3135 145.674 75.133 145.894Z" fill="#83F7A9"/>
<path d="M86.7956 149.497C86.5518 146.615 85.2316 143.93 83.098 141.979C82.8865 141.785 83.1971 141.467 83.4084 141.66C85.6248 143.695 86.9931 146.492 87.2402 149.492C87.2636 149.778 86.8188 149.782 86.7956 149.497Z" fill="#83F7A9"/>
<path d="M66.0744 136.631C66.5112 136.282 66.8547 135.83 67.0739 135.315C67.2931 134.801 67.3812 134.24 67.3303 133.683C67.3033 133.398 67.7481 133.394 67.7749 133.677C67.8283 134.293 67.7302 134.912 67.4893 135.481C67.2483 136.05 66.8719 136.552 66.3927 136.941C66.3507 136.982 66.2947 137.005 66.2363 137.006C66.178 137.006 66.1215 136.985 66.0784 136.945C66.0364 136.904 66.0125 136.848 66.0117 136.789C66.011 136.73 66.0335 136.673 66.0744 136.631Z" fill="#83F7A9"/>
<path d="M90.3525 110.153C90.3744 110.331 90.3963 110.509 90.4215 110.689C90.7284 113.078 91.2286 115.438 91.9173 117.746C91.9678 117.925 92.0215 118.106 92.077 118.284C93.7955 123.827 96.5272 129.002 100.133 133.547C101.57 135.354 103.142 137.049 104.835 138.617C107.174 140.783 109.882 142.945 111.327 145.678C111.481 145.961 111.617 146.254 111.735 146.554L104.524 161.351C104.491 161.376 104.461 161.403 104.428 161.429L104.167 162.033C104.074 161.958 103.979 161.878 103.886 161.804C103.832 161.76 103.779 161.714 103.725 161.671C103.69 161.641 103.654 161.611 103.62 161.586C103.608 161.576 103.597 161.566 103.588 161.558C103.554 161.533 103.526 161.506 103.495 161.483C102.964 161.04 102.435 160.592 101.908 160.14C101.904 160.138 101.904 160.138 101.903 160.133C97.8961 156.677 94.1429 152.855 91.0884 148.585C90.9966 148.456 90.9013 148.326 90.8127 148.191C89.4466 146.258 88.2405 144.217 87.2066 142.088C86.6443 140.92 86.1413 139.725 85.6997 138.506C84.5647 135.355 83.9319 132.045 83.8245 128.698C83.6114 122.024 85.5331 115.356 90.0071 110.52C90.1216 110.396 90.2346 110.275 90.3525 110.153Z" fill="#F0F0F0"/>
<path d="M90.5237 110.278C88.395 118.36 88.8645 126.908 91.8656 134.707C92.4819 136.398 93.3606 137.981 94.4693 139.397C95.5939 140.742 97.0578 141.762 98.7089 142.349C100.238 142.927 101.868 143.342 103.229 144.282C103.919 144.774 104.497 145.406 104.926 146.137C105.354 146.868 105.624 147.682 105.716 148.524C106.001 150.618 105.518 152.689 104.974 154.697C104.371 156.928 103.709 159.235 104.153 161.558C104.206 161.84 103.767 161.907 103.713 161.626C102.942 157.583 105.341 153.841 105.356 149.838C105.364 147.97 104.809 146.089 103.301 144.889C101.983 143.84 100.302 143.411 98.749 142.839C97.1299 142.29 95.6697 141.352 94.4961 140.107C93.3189 138.752 92.3808 137.206 91.7219 135.535C90.1786 131.797 89.232 127.84 88.9168 123.808C88.5315 119.209 88.9351 114.577 90.1102 110.114C90.1831 109.838 90.5961 110.004 90.5237 110.278Z" fill="#83F7A9"/>
<path d="M90.751 132.253C89.3752 132.579 87.9284 132.406 86.6688 131.763C85.4093 131.12 84.419 130.05 83.8749 128.744C83.7657 128.479 84.1715 128.297 84.2808 128.562C84.7853 129.779 85.7078 130.776 86.8819 131.372C88.056 131.968 89.4044 132.125 90.6837 131.813C90.9618 131.746 91.0275 132.186 90.751 132.253Z" fill="#83F7A9"/>
<path d="M97.8955 142.158C99.4347 139.71 99.9955 136.77 99.4658 133.927C99.4131 133.645 99.8527 133.578 99.9053 133.859C100.451 136.82 99.8612 139.877 98.2538 142.422C98.1005 142.664 97.7429 142.399 97.8955 142.158Z" fill="#83F7A9"/>
<path d="M89.0899 119.398C89.6485 119.383 90.1945 119.229 90.679 118.95C91.1635 118.671 91.5713 118.277 91.8657 117.801C92.0159 117.557 92.3733 117.822 92.2241 118.065C91.8964 118.588 91.4455 119.024 90.9109 119.333C90.3763 119.642 89.7742 119.815 89.1572 119.838C89.0992 119.845 89.0407 119.829 88.9937 119.795C88.9466 119.76 88.9145 119.709 88.9038 119.651C88.8952 119.593 88.9099 119.534 88.9447 119.486C88.9796 119.439 89.0317 119.407 89.0899 119.398Z" fill="#83F7A9"/>
<path d="M332.797 153.93C341.249 148.417 347.394 138.507 346.136 128.488C338.526 136.397 328.366 141.357 317.453 142.49C313.243 142.911 308.517 142.941 305.527 145.938C303.667 147.803 302.876 150.528 302.836 153.162C302.795 155.797 303.428 158.391 304.056 160.95L303.902 161.589C313.983 161.216 324.345 159.443 332.797 153.93Z" fill="#F0F0F0"/>
<path d="M345.925 128.485C342.763 136.221 337.247 142.763 330.159 147.182C328.65 148.161 326.996 148.895 325.259 149.358C323.552 149.754 321.77 149.686 320.098 149.16C318.53 148.7 316.979 148.049 315.326 147.979C314.479 147.956 313.638 148.112 312.856 148.438C312.074 148.763 311.37 149.251 310.789 149.868C309.302 151.367 308.443 153.312 307.668 155.243C306.808 157.388 305.949 159.629 304.197 161.217C303.985 161.409 304.296 161.728 304.507 161.535C307.555 158.772 307.89 154.339 310.286 151.133C311.403 149.638 312.978 148.47 314.904 148.421C316.587 148.377 318.188 149.048 319.772 149.527C321.395 150.064 323.125 150.195 324.81 149.909C326.566 149.536 328.245 148.866 329.776 147.93C333.256 145.875 336.392 143.286 339.069 140.257C342.143 136.817 344.607 132.876 346.354 128.604C346.462 128.339 346.032 128.223 345.925 128.485Z" fill="#83F7A9"/>
<path d="M332.525 145.894C333.428 146.984 334.687 147.717 336.08 147.962C337.472 148.208 338.906 147.951 340.126 147.236C340.373 147.09 340.158 146.7 339.912 146.846C338.777 147.514 337.441 147.753 336.145 147.522C334.849 147.29 333.678 146.603 332.844 145.583C332.662 145.362 332.345 145.674 332.525 145.894Z" fill="#83F7A9"/>
<path d="M320.863 149.497C321.107 146.615 322.427 143.93 324.561 141.979C324.773 141.785 324.462 141.467 324.251 141.66C322.034 143.695 320.666 146.492 320.419 149.492C320.396 149.778 320.84 149.782 320.863 149.497Z" fill="#83F7A9"/>
<path d="M341.584 136.631C341.147 136.282 340.804 135.83 340.584 135.315C340.365 134.801 340.277 134.24 340.328 133.683C340.355 133.398 339.91 133.394 339.883 133.677C339.83 134.293 339.928 134.912 340.169 135.481C340.41 136.05 340.786 136.552 341.265 136.941C341.308 136.982 341.363 137.005 341.422 137.006C341.48 137.006 341.537 136.985 341.58 136.945C341.622 136.904 341.646 136.848 341.646 136.789C341.647 136.73 341.625 136.673 341.584 136.631Z" fill="#83F7A9"/>
<path d="M317.306 110.153C317.285 110.331 317.263 110.509 317.237 110.689C316.931 113.078 316.43 115.438 315.742 117.746C315.691 117.925 315.637 118.106 315.582 118.284C313.864 123.827 311.132 129.002 307.526 133.547C306.089 135.354 304.517 137.049 302.824 138.617C300.485 140.783 297.777 142.945 296.332 145.678C296.178 145.961 296.042 146.254 295.924 146.554L303.135 161.351C303.168 161.376 303.198 161.403 303.231 161.429L303.492 162.033C303.585 161.958 303.68 161.878 303.773 161.804C303.827 161.76 303.88 161.714 303.934 161.671C303.969 161.641 304.005 161.611 304.039 161.586C304.051 161.576 304.062 161.566 304.071 161.558C304.105 161.533 304.134 161.506 304.164 161.483C304.695 161.04 305.224 160.592 305.751 160.14C305.755 160.138 305.755 160.138 305.757 160.133C309.763 156.677 313.516 152.855 316.571 148.585C316.662 148.456 316.758 148.326 316.846 148.191C318.212 146.258 319.418 144.217 320.452 142.088C321.015 140.92 321.518 139.725 321.959 138.506C323.094 135.355 323.727 132.045 323.835 128.698C324.048 122.024 322.126 115.356 317.652 110.52C317.537 110.396 317.424 110.275 317.306 110.153Z" fill="#F0F0F0"/>
<path d="M317.134 110.278C319.263 118.36 318.794 126.908 315.792 134.707C315.176 136.398 314.297 137.981 313.189 139.397C312.064 140.742 310.6 141.762 308.949 142.349C307.421 142.927 305.79 143.342 304.429 144.282C303.739 144.774 303.161 145.406 302.732 146.137C302.304 146.868 302.034 147.682 301.942 148.524C301.657 150.618 302.141 152.689 302.684 154.697C303.287 156.928 303.949 159.235 303.505 161.558C303.452 161.84 303.891 161.907 303.945 161.626C304.716 157.583 302.317 153.841 302.302 149.838C302.294 147.97 302.849 146.089 304.357 144.889C305.675 143.84 307.356 143.411 308.909 142.839C310.528 142.29 311.988 141.352 313.162 140.107C314.339 138.752 315.277 137.206 315.936 135.535C317.479 131.797 318.426 127.84 318.741 123.808C319.127 119.209 318.723 114.577 317.548 110.114C317.475 109.838 317.062 110.004 317.134 110.278Z" fill="#83F7A9"/>
<path d="M316.907 132.253C318.283 132.579 319.729 132.406 320.989 131.763C322.248 131.12 323.239 130.05 323.783 128.744C323.892 128.479 323.486 128.297 323.377 128.562C322.872 129.779 321.95 130.776 320.776 131.372C319.602 131.968 318.253 132.125 316.974 131.813C316.696 131.746 316.63 132.186 316.907 132.253Z" fill="#83F7A9"/>
<path d="M309.763 142.158C308.224 139.71 307.663 136.77 308.193 133.927C308.245 133.645 307.806 133.578 307.753 133.859C307.207 136.82 307.797 139.877 309.404 142.422C309.558 142.664 309.915 142.399 309.763 142.158Z" fill="#83F7A9"/>
<path d="M318.568 119.398C318.01 119.383 317.464 119.229 316.979 118.95C316.495 118.671 316.087 118.277 315.793 117.801C315.642 117.557 315.285 117.822 315.434 118.065C315.762 118.588 316.213 119.024 316.747 119.333C317.282 119.642 317.884 119.815 318.501 119.838C318.559 119.845 318.617 119.829 318.665 119.795C318.712 119.76 318.744 119.709 318.754 119.651C318.763 119.593 318.748 119.534 318.713 119.486C318.679 119.439 318.626 119.407 318.568 119.398Z" fill="#83F7A9"/>
<path d="M91.5079 105.311C91.1881 105.119 90.9144 104.858 90.7061 104.548C90.4978 104.238 90.3598 103.886 90.3021 103.517C90.2444 103.148 90.2682 102.771 90.3718 102.412C90.4755 102.053 90.6566 101.721 90.9022 101.44L86.4062 93.5527L91.111 93.857L94.6591 101.3C95.1039 101.745 95.3703 102.337 95.4079 102.965C95.4456 103.593 95.2518 104.212 94.8634 104.707C94.475 105.201 93.9188 105.536 93.3004 105.647C92.6819 105.759 92.0442 105.639 91.5079 105.311Z" fill="#FFB6B6"/>
<path d="M56.8988 159.081H60.0116L61.4924 147.064L56.8984 147.064L56.8988 159.081Z" fill="#FFB6B6"/>
<path d="M56.1045 158.064L62.2343 158.063C63.2703 158.064 64.2641 158.475 64.9966 159.209C65.7292 159.942 66.1408 160.936 66.1409 161.973V162.1L56.1047 162.101L56.1045 158.064Z" fill="#2F2E41"/>
<path d="M78.2254 159.081H81.3378L82.8186 147.064L78.2246 147.064L78.2254 159.081Z" fill="#FFB6B6"/>
<path d="M77.4307 158.064L83.5604 158.063C84.5965 158.064 85.5903 158.475 86.3228 159.209C87.0554 159.942 87.467 160.936 87.4671 161.973V162.1L77.4308 162.101L77.4307 158.064Z" fill="#2F2E41"/>
<path d="M86.2282 93.8916C86.2282 93.8916 87.0843 106.095 85.3981 112.241C83.712 118.386 83.4109 155.553 83.4109 155.553H77.759L72.8603 104.961L61.5671 155.731L56.1836 155.36L59.136 95.5354L86.2282 93.8916Z" fill="#2F2E41"/>
<path d="M61.4722 52.7555L65.7929 49.5996L73.033 51.1775L74.9928 55.8386L78.3699 57.5145C79.4803 58.0656 80.4404 58.8783 81.1677 59.8827C81.895 60.8872 82.3678 62.0534 82.5455 63.2811L87.37 96.6277L59.1366 95.5353L55.7186 56.2632C55.6829 55.8529 55.7298 55.4397 55.8565 55.0479C55.9832 54.6561 56.1871 54.2938 56.4562 53.9823C56.7253 53.6708 57.054 53.4165 57.4231 53.2344C57.7921 53.0523 58.1938 52.9462 58.6045 52.9223L61.4722 52.7555Z" fill="#3F3D56"/>
<path d="M80.1562 60.1196L82.7639 63.638L94.1216 98.3112L88.7978 100.445L80.273 84.2878L80.1562 60.1196Z" fill="#3F3D56"/>
<path d="M70.7034 47.9522C74.1861 47.9522 77.0094 45.1263 77.0094 41.6404C77.0094 38.1545 74.1861 35.3286 70.7034 35.3286C67.2207 35.3286 64.3975 38.1545 64.3975 41.6404C64.3975 45.1263 67.2207 47.9522 70.7034 47.9522Z" fill="#FFB9B9"/>
<path opacity="0.1" d="M56.957 67.6084L67.2475 81.9341L78.75 89.4418L56.957 67.6084Z" fill="#1C6F37"/>
<path d="M67.3617 46.2033C66.9231 45.3268 66.4718 44.3726 66.6395 43.4067C66.8072 42.4408 67.9146 41.5992 68.7693 42.0781C69.1238 40.7954 70.6936 40.234 72.015 40.3821C73.3364 40.5302 74.5531 41.1681 75.8544 41.442C77.1556 41.7159 78.7358 41.4986 79.439 40.3691L77.7564 40.34L79.5086 38.3057L77.4774 38.1536C78.181 37.3936 77.9941 36.1024 77.313 35.3221C76.6319 34.5419 75.5983 34.1728 74.5898 33.9393C72.5765 33.4748 70.4896 33.4268 68.4571 33.7982C67.4987 33.9461 66.5754 34.2677 65.7324 34.7472C64.9385 35.2319 64.2826 35.9128 63.8276 36.7244C63.3367 37.6402 63.0714 38.66 63.0537 39.6991C63.0237 41.0909 63.3432 42.4679 63.9829 43.7041C64.6227 44.9402 65.5621 45.9959 66.7152 46.7743" fill="#2F2E41"/>
<path d="M302.151 162.263H106.456C104.441 162.261 102.509 161.458 101.083 160.032C99.6584 158.606 98.8568 156.672 98.8545 154.655V7.60828C98.8568 5.59112 99.6584 3.65723 101.083 2.2309C102.509 0.804566 104.441 0.0022646 106.456 0H302.151C304.166 0.00230041 306.098 0.80462 307.523 2.23095C308.948 3.65728 309.75 5.59114 309.752 7.60828V154.655C309.75 156.672 308.948 158.606 307.523 160.032C306.098 161.458 304.166 162.261 302.151 162.263Z" fill="#E4E4E4"/>
<path d="M252.898 67.5158H222.689C221.197 67.5158 219.765 66.9222 218.709 65.8656C217.654 64.809 217.061 63.376 217.061 61.8817C217.061 60.3874 217.654 58.9544 218.709 57.8978C219.765 56.8412 221.197 56.2476 222.689 56.2476H252.898C254.391 56.2476 255.823 56.8412 256.878 57.8978C257.934 58.9544 258.527 60.3874 258.527 61.8817C258.527 63.376 257.934 64.809 256.878 65.8656C255.823 66.9222 254.391 67.5158 252.898 67.5158Z" fill="#83F7A9"/>
<path d="M226.442 82.9154H219.312C218.765 82.9154 218.24 82.6977 217.853 82.3103C217.465 81.9229 217.248 81.3974 217.248 80.8495C217.248 80.3016 217.465 79.7762 217.853 79.3888C218.24 79.0013 218.765 78.7837 219.312 78.7837H226.442C226.989 78.7837 227.514 79.0013 227.901 79.3888C228.288 79.7762 228.506 80.3016 228.506 80.8495C228.506 81.3974 228.288 81.9229 227.901 82.3103C227.514 82.6977 226.989 82.9154 226.442 82.9154Z" fill="#83F7A9"/>
<path d="M256.088 82.9154H248.958C248.411 82.9154 247.886 82.6977 247.499 82.3103C247.112 81.9229 246.895 81.3974 246.895 80.8495C246.895 80.3016 247.112 79.7762 247.499 79.3888C247.886 79.0013 248.411 78.7837 248.958 78.7837H256.088C256.636 78.7837 257.161 79.0013 257.548 79.3888C257.935 79.7762 258.152 80.3016 258.152 80.8495C258.152 81.3974 257.935 81.9229 257.548 82.3103C257.161 82.6977 256.636 82.9154 256.088 82.9154Z" fill="#83F7A9"/>
<path d="M241.078 82.9154H233.948C233.4 82.9154 232.875 82.6977 232.488 82.3103C232.101 81.9229 231.884 81.3974 231.884 80.8495C231.884 80.3016 232.101 79.7762 232.488 79.3888C232.875 79.0013 233.4 78.7837 233.948 78.7837H241.078C241.625 78.7837 242.15 79.0013 242.537 79.3888C242.924 79.7762 243.142 80.3016 243.142 80.8495C243.142 81.3974 242.924 81.9229 242.537 82.3103C242.15 82.6977 241.625 82.9154 241.078 82.9154Z" fill="#83F7A9"/>
<path d="M226.442 90.8036H219.312C218.765 90.8036 218.24 90.5859 217.853 90.1985C217.465 89.8111 217.248 89.2856 217.248 88.7377C217.248 88.1898 217.465 87.6644 217.853 87.277C218.24 86.8895 218.765 86.6719 219.312 86.6719H226.442C226.989 86.6719 227.514 86.8895 227.901 87.277C228.288 87.6644 228.506 88.1898 228.506 88.7377C228.506 89.2856 228.288 89.8111 227.901 90.1985C227.514 90.5859 226.989 90.8036 226.442 90.8036Z" fill="#83F7A9"/>
<path d="M256.088 90.8036H248.958C248.411 90.8036 247.886 90.5859 247.499 90.1985C247.112 89.8111 246.895 89.2856 246.895 88.7377C246.895 88.1898 247.112 87.6644 247.499 87.277C247.886 86.8895 248.411 86.6719 248.958 86.6719H256.088C256.636 86.6719 257.161 86.8895 257.548 87.277C257.935 87.6644 258.152 88.1898 258.152 88.7377C258.152 89.2856 257.935 89.8111 257.548 90.1985C257.161 90.5859 256.636 90.8036 256.088 90.8036Z" fill="#83F7A9"/>
<path d="M241.078 90.8036H233.948C233.4 90.8036 232.875 90.5859 232.488 90.1985C232.101 89.8111 231.884 89.2856 231.884 88.7377C231.884 88.1898 232.101 87.6644 232.488 87.277C232.875 86.8895 233.4 86.6719 233.948 86.6719H241.078C241.625 86.6719 242.15 86.8895 242.537 87.277C242.924 87.6644 243.142 88.1898 243.142 88.7377C243.142 89.2856 242.924 89.8111 242.537 90.1985C242.15 90.5859 241.625 90.8036 241.078 90.8036Z" fill="#83F7A9"/>
<path d="M226.442 98.6913H219.312C218.765 98.6913 218.24 98.4736 217.853 98.0862C217.465 97.6988 217.248 97.1733 217.248 96.6254C217.248 96.0775 217.465 95.5521 217.853 95.1647C218.24 94.7772 218.765 94.5596 219.312 94.5596H226.442C226.989 94.5596 227.514 94.7772 227.901 95.1647C228.288 95.5521 228.506 96.0775 228.506 96.6254C228.506 97.1733 228.288 97.6988 227.901 98.0862C227.514 98.4736 226.989 98.6913 226.442 98.6913Z" fill="#83F7A9"/>
<path d="M256.088 98.6913H248.958C248.411 98.6913 247.886 98.4736 247.499 98.0862C247.112 97.6988 246.895 97.1733 246.895 96.6254C246.895 96.0775 247.112 95.5521 247.499 95.1647C247.886 94.7772 248.411 94.5596 248.958 94.5596H256.088C256.636 94.5596 257.161 94.7772 257.548 95.1647C257.935 95.5521 258.152 96.0775 258.152 96.6254C258.152 97.1733 257.935 97.6988 257.548 98.0862C257.161 98.4736 256.636 98.6913 256.088 98.6913Z" fill="#83F7A9"/>
<path d="M241.078 98.6913H233.948C233.4 98.6913 232.875 98.4736 232.488 98.0862C232.101 97.6988 231.884 97.1733 231.884 96.6254C231.884 96.0775 232.101 95.5521 232.488 95.1647C232.875 94.7772 233.4 94.5596 233.948 94.5596H241.078C241.625 94.5596 242.15 94.7772 242.537 95.1647C242.924 95.5521 243.142 96.0775 243.142 96.6254C243.142 97.1733 242.924 97.6988 242.537 98.0862C242.15 98.4736 241.625 98.6913 241.078 98.6913Z" fill="#83F7A9"/>
<path d="M226.442 106.579H219.312C218.765 106.579 218.24 106.361 217.853 105.974C217.465 105.586 217.248 105.061 217.248 104.513C217.248 103.965 217.465 103.44 217.853 103.052C218.24 102.665 218.765 102.447 219.312 102.447H226.442C226.989 102.447 227.514 102.665 227.901 103.052C228.288 103.44 228.506 103.965 228.506 104.513C228.506 105.061 228.288 105.586 227.901 105.974C227.514 106.361 226.989 106.579 226.442 106.579Z" fill="#83F7A9"/>
<path d="M256.088 106.579H248.958C248.411 106.579 247.886 106.361 247.499 105.974C247.112 105.586 246.895 105.061 246.895 104.513C246.895 103.965 247.112 103.44 247.499 103.052C247.886 102.665 248.411 102.447 248.958 102.447H256.088C256.636 102.447 257.161 102.665 257.548 103.052C257.935 103.44 258.152 103.965 258.152 104.513C258.152 105.061 257.935 105.586 257.548 105.974C257.161 106.361 256.636 106.579 256.088 106.579Z" fill="#83F7A9"/>
<path d="M241.078 106.579H233.948C233.4 106.579 232.875 106.361 232.488 105.974C232.101 105.586 231.884 105.061 231.884 104.513C231.884 103.965 232.101 103.44 232.488 103.052C232.875 102.665 233.4 102.447 233.948 102.447H241.078C241.625 102.447 242.15 102.665 242.537 103.052C242.924 103.44 243.142 103.965 243.142 104.513C243.142 105.061 242.924 105.586 242.537 105.974C242.15 106.361 241.625 106.579 241.078 106.579Z" fill="#83F7A9"/>
<path d="M178.221 98.3155C188.791 98.3155 197.36 89.7391 197.36 79.1595C197.36 68.5799 188.791 60.0034 178.221 60.0034C167.652 60.0034 159.083 68.5799 159.083 79.1595C159.083 89.7391 167.652 98.3155 178.221 98.3155Z" fill="#CACACA"/>
<path d="M178.221 102.635C176.728 102.633 175.298 102.039 174.242 100.983C173.187 99.9266 172.593 98.4945 172.592 97.0007V61.3179C172.591 60.5776 172.736 59.8445 173.019 59.1604C173.302 58.4763 173.716 57.8547 174.239 57.331C174.762 56.8074 175.382 56.3919 176.066 56.1085C176.749 55.8251 177.481 55.6792 178.221 55.6792C178.96 55.6792 179.693 55.8251 180.376 56.1085C181.059 56.3919 181.68 56.8074 182.203 57.331C182.725 57.8547 183.14 58.4763 183.422 59.1604C183.705 59.8445 183.85 60.5776 183.85 61.3179V97.0007C183.848 98.4945 183.254 99.9266 182.199 100.983C181.144 102.039 179.713 102.633 178.221 102.635Z" fill="#83F7A9"/>
<path d="M228.22 65.0962H222.966C222.767 65.0962 222.576 65.017 222.436 64.8762C222.295 64.7353 222.216 64.5442 222.216 64.345C222.216 64.1457 222.295 63.9547 222.436 63.8138C222.576 63.6729 222.767 63.5938 222.966 63.5938H228.22C228.419 63.5938 228.61 63.6729 228.751 63.8138C228.891 63.9547 228.971 64.1457 228.971 64.345C228.971 64.5442 228.891 64.7353 228.751 64.8762C228.61 65.017 228.419 65.0962 228.22 65.0962Z" fill="#E4E4E4"/>
<path d="M236.476 65.2842H231.222C231.023 65.2842 230.832 65.205 230.691 65.0641C230.551 64.9233 230.472 64.7322 230.472 64.533C230.472 64.3337 230.551 64.1426 230.691 64.0018C230.832 63.8609 231.023 63.7817 231.222 63.7817H236.476C236.675 63.7817 236.866 63.8609 237.007 64.0018C237.147 64.1426 237.226 64.3337 237.226 64.533C237.226 64.7322 237.147 64.9233 237.007 65.0641C236.866 65.205 236.675 65.2842 236.476 65.2842Z" fill="#E4E4E4"/>
<path d="M244.732 65.4722H239.478C239.279 65.4722 239.088 65.393 238.947 65.2521C238.807 65.1113 238.728 64.9202 238.728 64.7209C238.728 64.5217 238.807 64.3306 238.947 64.1898C239.088 64.0489 239.279 63.9697 239.478 63.9697H244.732C244.931 63.9697 245.122 64.0489 245.262 64.1898C245.403 64.3306 245.482 64.5217 245.482 64.7209C245.482 64.9202 245.403 65.1113 245.262 65.2521C245.122 65.393 244.931 65.4722 244.732 65.4722Z" fill="#E4E4E4"/>
<path d="M252.987 65.6597H247.733C247.534 65.6597 247.343 65.5805 247.202 65.4396C247.061 65.2988 246.982 65.1077 246.982 64.9084C246.982 64.7092 247.061 64.5181 247.202 64.3773C247.343 64.2364 247.534 64.1572 247.733 64.1572H252.987C253.186 64.1572 253.377 64.2364 253.517 64.3773C253.658 64.5181 253.737 64.7092 253.737 64.9084C253.737 65.1077 253.658 65.2988 253.517 65.4396C253.377 65.5805 253.186 65.6597 252.987 65.6597Z" fill="#E4E4E4"/>
<path d="M123.808 139.069C123.808 139.999 123.992 140.92 124.35 141.778C124.708 142.636 125.233 143.415 125.895 144.068H122.795C121.88 144.068 120.974 143.888 120.129 143.537C119.284 143.187 118.517 142.674 117.87 142.026C117.223 141.379 116.71 140.611 116.36 139.765C116.01 138.919 115.83 138.013 115.83 137.097V24.0832C115.83 23.1678 116.01 22.2613 116.36 21.4156C116.71 20.5698 117.223 19.8014 117.87 19.154C118.517 18.5067 119.284 17.9933 120.129 17.6429C120.974 17.2926 121.88 17.1123 122.795 17.1123H127.306C126.242 17.7316 125.359 18.6195 124.745 19.6873C124.131 20.755 123.808 21.9653 123.808 23.1972L123.808 139.069Z" fill="#CACACA"/>
<path d="M352.553 163H0.446503C0.328224 163 0.214908 162.952 0.131393 162.868C0.0478777 162.785 0.000976562 162.671 0.000976562 162.553C0.000976562 162.434 0.0478777 162.321 0.131393 162.237C0.214908 162.153 0.328224 162.106 0.446503 162.105H352.553C352.671 162.105 352.785 162.153 352.869 162.236C352.953 162.32 353 162.434 353 162.553C353 162.671 352.953 162.785 352.869 162.869C352.785 162.953 352.671 163 352.553 163Z" fill="#CACACA"/>
<path d="M123.057 50.136C120.686 49.4711 118.305 48.8551 115.916 48.288C107.746 46.3359 99.4632 44.8908 91.1151 43.9609C89.7 43.588 88.1951 43.7896 86.9279 44.5219C85.6606 45.2542 84.7337 46.458 84.349 47.871L80.1799 63.271C79.7971 64.6905 79.9927 66.204 80.7237 67.4794C81.4547 68.7547 82.6614 69.6876 84.0789 70.0733L84.1352 70.0845C89.6516 70.7118 95.2204 71.5832 100.759 72.695C101.255 72.7927 101.746 72.8941 102.242 72.9993C104.017 73.3674 105.787 73.7605 107.551 74.1787C108.325 74.359 109.094 74.5468 109.867 74.7383C111.946 75.2567 114.026 75.8088 116.108 76.3948C118.423 77.0483 120.739 77.7457 123.057 78.4869C123.309 78.562 123.56 78.6409 123.808 78.7235V50.3501C123.56 50.2749 123.309 50.2036 123.057 50.136Z" fill="#83F7A9"/>
<path d="M123.057 50.136C120.686 49.4711 118.305 48.8551 115.916 48.288C107.746 46.3359 99.4632 44.8908 91.1151 43.9609C89.7 43.588 88.1951 43.7896 86.9279 44.5219C85.6606 45.2542 84.7337 46.458 84.349 47.871L80.1799 63.271C79.7971 64.6905 79.9927 66.204 80.7237 67.4794C81.4547 68.7547 82.6614 69.6876 84.0789 70.0733L84.1352 70.0845C89.6516 70.7118 95.2204 71.5832 100.759 72.695C101.255 72.7927 101.746 72.8941 102.242 72.9993C104.017 73.3674 105.787 73.7605 107.551 74.1787C108.325 74.359 109.094 74.5468 109.867 74.7383C111.946 75.2567 114.026 75.8088 116.108 76.3948C118.423 77.0483 120.739 77.7457 123.057 78.4869C123.309 78.562 123.56 78.6409 123.808 78.7235V77.931C123.556 77.8521 123.305 77.7732 123.057 77.6943C120.926 77.0145 118.797 76.3747 116.67 75.775C115.875 75.5459 115.079 75.3243 114.284 75.1102C112.85 74.7233 111.421 74.3527 109.995 73.9984C109.237 73.8068 108.48 73.6227 107.724 73.4462C107.668 73.4312 107.608 73.4199 107.551 73.4049C106.264 73.1007 104.975 72.8102 103.682 72.5335C103.187 72.4283 102.692 72.3231 102.196 72.2217C96.2223 70.9822 90.2031 70.0169 84.2476 69.3408C83.0295 69.0013 81.9947 68.1938 81.3685 67.0943C80.7423 65.9948 80.5754 64.6922 80.9042 63.47L85.0733 48.0663C85.4067 46.8407 86.2124 45.7976 87.3135 45.1659C88.4145 44.5343 89.721 44.3657 90.9461 44.6971L91.0023 44.7046C99.2446 45.6207 107.423 47.0406 115.492 48.9565C115.575 48.9791 115.657 48.9978 115.74 49.0166C118.187 49.6026 120.626 50.2361 123.057 50.9172C123.305 50.9848 123.556 51.0562 123.808 51.1313V50.35C123.56 50.2749 123.309 50.2036 123.057 50.136Z" fill="#1C6F37"/>
<path d="M123.809 50.7408V78.3254C123.557 78.2428 123.31 78.1639 123.058 78.0851C120.84 77.3752 118.615 76.7066 116.382 76.0793C114.239 75.4708 112.089 74.8987 109.932 74.3628C109.166 74.175 108.404 73.9909 107.639 73.8106C107.609 73.6754 107.578 73.5402 107.552 73.405C107.413 72.7589 107.305 72.1054 107.222 71.4481C107.185 71.1964 107.158 70.9447 107.132 70.6893C106.737 66.6652 107.287 62.6045 108.739 58.8311C110.191 55.0578 112.504 51.6763 115.493 48.9566C115.602 48.8514 115.714 48.75 115.827 48.6523C118.251 49.2308 120.661 49.8568 123.058 50.5304C123.31 50.5943 123.561 50.6656 123.809 50.7408Z" fill="#1C6F37"/>
<path d="M98.8871 62.0351L88.451 60.8031C88.0839 60.7597 87.7118 60.7891 87.356 60.8897C87.0002 60.9902 86.6677 61.1599 86.3774 61.389C86.0872 61.6182 85.8448 61.9023 85.6643 62.2252C85.4837 62.5481 85.3685 62.9035 85.3251 63.2709C85.2817 63.6384 85.3111 64.0108 85.4115 64.3669C85.512 64.7231 85.6815 65.0559 85.9105 65.3464C86.1394 65.637 86.4233 65.8795 86.7459 66.0602C87.0685 66.241 87.4235 66.3563 87.7906 66.3997L98.2265 67.6317C98.967 67.7174 99.7112 67.5057 100.296 67.0429C100.881 66.5802 101.258 65.9042 101.346 65.1632C101.433 64.4222 101.223 63.6768 100.762 63.0904C100.302 62.504 99.6271 62.1245 98.8871 62.0351ZM100.606 65.0776C100.54 65.6212 100.262 66.1167 99.8325 66.4554C99.4026 66.7941 98.8561 66.9483 98.3128 66.8842L87.8767 65.6523C87.3348 65.5862 86.8411 65.3079 86.5038 64.8783C86.1665 64.4486 86.013 63.9027 86.0771 63.36C86.1411 62.8174 86.4174 62.3222 86.8455 61.9831C87.2735 61.6439 87.8184 61.4884 88.3608 61.5506L98.7969 62.7826C99.3401 62.8484 99.8352 63.1267 100.174 63.5567C100.513 63.9867 100.668 64.5334 100.606 65.0776Z" fill="#1C6F37"/>
<path d="M123.808 57.201V70.2835C123.567 70.4283 123.316 70.5563 123.057 70.6666C121.71 71.2685 120.217 71.4633 118.761 71.2271C117.305 70.9909 115.95 70.3339 114.862 69.337C114.757 69.2431 114.651 69.1417 114.55 69.0365C114.449 68.9351 114.351 68.8261 114.257 68.7172C113.125 67.4148 112.47 65.7645 112.401 64.039C112.333 62.3136 112.855 60.6164 113.881 59.2284C114.908 57.8403 116.376 56.8444 118.045 56.4054C119.713 55.9664 121.482 56.1106 123.057 56.8142C123.314 56.9295 123.565 57.0587 123.808 57.201Z" fill="#83F7A9"/>
<path d="M123.058 66.6701C120.104 67.2861 117.171 67.9685 114.258 68.7172C113.17 68.9951 112.085 69.2831 111.004 69.5811C109.713 69.9379 108.422 70.3072 107.131 70.6891C105.484 71.1774 103.839 71.6882 102.197 72.2216C101.72 72.3793 101.24 72.5371 100.759 72.6949C96.1925 74.2198 91.6557 75.9101 87.1938 77.7543C85.7739 78.1095 84.5517 79.0118 83.7933 80.2647C83.0349 81.5177 82.8018 83.0197 83.1447 84.4439L86.9087 99.949C87.257 101.377 88.1571 102.609 89.4114 103.373C90.6657 104.138 92.1719 104.374 93.5994 104.028L93.652 104.009C100.99 100.997 108.499 98.4232 116.142 96.3019C118.423 95.6671 120.729 95.0686 123.058 94.5065C123.309 94.4464 123.557 94.3863 123.808 94.3299V66.5161C123.557 66.5612 123.309 66.6137 123.058 66.6701Z" fill="#83F7A9"/>
<path d="M123.058 66.6701C120.104 67.2861 117.171 67.9685 114.258 68.7172C113.17 68.9951 112.085 69.2831 111.004 69.5811C109.713 69.9379 108.422 70.3072 107.131 70.6891C105.484 71.1774 103.839 71.6882 102.197 72.2216C101.72 72.3793 101.24 72.5371 100.759 72.6949C96.1925 74.2198 91.6557 75.9101 87.1938 77.7543C85.7739 78.1095 84.5517 79.0118 83.7933 80.2647C83.0349 81.5177 82.8018 83.0197 83.1447 84.4439L86.9087 99.949C87.257 101.377 88.1571 102.609 89.4114 103.373C90.6657 104.138 92.1719 104.374 93.5994 104.028L93.652 104.009C100.99 100.997 108.499 98.4232 116.142 96.3019C118.423 95.6671 120.729 95.0686 123.058 94.5065C123.309 94.4464 123.557 94.3863 123.808 94.3299V93.5562C123.557 93.6163 123.309 93.6764 123.058 93.7365C122.87 93.7816 122.679 93.8266 122.491 93.8717C120.284 94.4088 118.102 94.9772 115.943 95.577C115.886 95.592 115.826 95.6108 115.77 95.6258C108.166 97.7424 100.694 100.307 93.3931 103.307C92.1619 103.596 90.8665 103.387 89.7886 102.725C88.7107 102.063 87.9373 101.002 87.6366 99.7725L83.8765 84.2674C83.5781 83.0327 83.7811 81.73 84.4409 80.6449C85.1008 79.5599 86.1637 78.781 87.3964 78.4793L87.4527 78.4605C92.3124 76.4472 97.2582 74.6217 102.242 72.9991C102.722 72.8414 103.203 72.6874 103.683 72.5334C104.861 72.1615 106.041 71.7997 107.222 71.4479C108.467 71.076 109.712 70.7179 110.955 70.3736C111.038 70.3511 111.121 70.3285 111.203 70.306C112.419 69.9717 113.639 69.6487 114.862 69.3369C117.575 68.6458 120.307 68.011 123.058 67.4326C123.305 67.38 123.557 67.3274 123.808 67.2786V66.5161C123.557 66.5612 123.309 66.6137 123.058 66.6701Z" fill="#1C6F37"/>
<path d="M123.808 66.8955V93.9431C123.561 93.9994 123.309 94.0558 123.058 94.1159C120.709 94.6868 118.37 95.2953 116.04 95.9413C115.947 95.8362 115.856 95.731 115.77 95.6258C113.339 92.7768 111.552 89.4347 110.533 85.8292C109.514 82.2236 109.287 78.44 109.867 74.7382C109.886 74.6143 109.909 74.4866 109.931 74.3626C109.95 74.2424 109.972 74.1185 109.995 73.9983C110.227 72.7683 110.548 71.5569 110.955 70.3736C111.004 70.2309 111.053 70.0882 111.106 69.9454C112.25 69.63 113.398 69.327 114.551 69.0365C117.369 68.3078 120.205 67.6455 123.058 67.0495C123.305 66.9932 123.557 66.9443 123.808 66.8955Z" fill="#1C6F37"/>
<path d="M106.37 91.3966C106.088 90.7049 105.544 90.153 104.857 89.8622C104.17 89.5714 103.395 89.5653 102.703 89.8454L92.9652 93.7968C92.2746 94.0785 91.724 94.623 91.4342 95.3107C91.1443 95.9985 91.139 96.7732 91.4194 97.4649C91.6998 98.1565 92.243 98.7085 92.9296 98.9997C93.6163 99.2908 94.3903 99.2973 95.0817 99.0177L104.82 95.0663C105.51 94.784 106.061 94.2394 106.352 93.5517C106.642 92.864 106.649 92.0891 106.37 91.3966ZM104.538 94.3677L94.8003 98.3229C94.2929 98.5282 93.7248 98.5236 93.2208 98.31C92.7168 98.0964 92.3181 97.6913 92.1123 97.1837C91.9064 96.6761 91.9103 96.1075 92.123 95.6028C92.3357 95.098 92.7398 94.6984 93.2467 94.4916L102.985 90.5402C103.492 90.334 104.06 90.3379 104.564 90.551C105.069 90.764 105.468 91.1689 105.674 91.6764C105.88 92.184 105.876 92.7527 105.663 93.2574C105.45 93.7621 105.046 94.1615 104.538 94.3677Z" fill="#1C6F37"/>
<path d="M123.808 73.8031V88.5308C123.561 88.5938 123.31 88.644 123.058 88.681C121.551 88.8924 120.016 88.6452 118.651 87.9717C117.287 87.2981 116.157 86.2294 115.407 84.9043C114.657 83.5792 114.323 82.0591 114.448 80.5416C114.573 79.024 115.152 77.5792 116.108 76.3948C116.194 76.2859 116.284 76.1807 116.382 76.0793C116.472 75.9742 116.569 75.8727 116.671 75.7751C117.501 74.9536 118.509 74.3351 119.616 73.9676C120.724 73.6002 121.902 73.4937 123.058 73.6567C123.31 73.6906 123.561 73.7395 123.808 73.8031Z" fill="#83F7A9"/>
<path d="M123.058 48.1788V85.6683C123.309 85.5857 123.561 85.5068 123.808 85.4317V48.5206C123.557 48.4042 123.309 48.2915 123.058 48.1788ZM123.058 48.1788V85.6683C123.309 85.5857 123.561 85.5068 123.808 85.4317V48.5206C123.557 48.4042 123.309 48.2915 123.058 48.1788ZM123.058 48.1788V85.6683C123.309 85.5857 123.561 85.5068 123.808 85.4317V48.5206C123.557 48.4042 123.309 48.2915 123.058 48.1788ZM123.058 50.917V94.1158C123.309 94.0557 123.561 93.9993 123.808 93.943V51.1311C123.557 51.056 123.305 50.9846 123.058 50.917ZM123.058 50.917V94.1158C123.309 94.0557 123.561 93.9993 123.808 93.943V51.1311C123.557 51.056 123.305 50.9846 123.058 50.917ZM123.058 50.917V94.1158C123.309 94.0557 123.561 93.9993 123.808 93.943V51.1311C123.557 51.056 123.305 50.9846 123.058 50.917ZM123.058 50.917V94.1158C123.309 94.0557 123.561 93.9993 123.808 93.943V51.1311C123.557 51.056 123.305 50.9846 123.058 50.917ZM123.058 50.917V94.5064C123.309 94.4463 123.557 94.3862 123.808 94.3299V51.1311C123.557 51.056 123.305 50.9846 123.058 50.917ZM286.766 15.3994H130.848C128.783 15.4029 126.803 16.2255 125.343 17.6871C123.883 19.1487 123.061 21.13 123.058 23.1971V139.069C123.061 141.135 123.883 143.116 125.344 144.577C126.804 146.038 128.783 146.86 130.848 146.863H286.766C288.83 146.86 290.809 146.038 292.269 144.577C293.729 143.116 294.55 141.135 294.552 139.069V23.1971C294.551 21.1302 293.73 19.1484 292.27 17.6865C290.81 16.2247 288.831 15.4021 286.766 15.3994ZM293.802 139.069C293.8 140.936 293.058 142.726 291.739 144.046C290.42 145.367 288.631 146.109 286.766 146.111H130.848C128.982 146.11 127.193 145.367 125.873 144.047C124.554 142.727 123.811 140.936 123.808 139.069V23.1971C123.811 21.3291 124.554 19.5384 125.873 18.2176C127.193 16.8967 128.982 16.1534 130.848 16.1506H286.766C288.632 16.1528 290.421 16.896 291.74 18.2171C293.059 19.5382 293.801 21.3292 293.802 23.1971V139.069ZM123.058 50.917V93.7364C123.309 93.6763 123.557 93.6162 123.808 93.5561V51.1311C123.557 51.056 123.305 50.9846 123.058 50.917ZM123.058 50.917V94.1158C123.309 94.0557 123.561 93.9993 123.808 93.943V51.1311C123.557 51.056 123.305 50.9846 123.058 50.917ZM123.058 50.917V94.1158C123.309 94.0557 123.561 93.9993 123.808 93.943V51.1311C123.557 51.056 123.305 50.9846 123.058 50.917ZM123.058 50.917V94.1158C123.309 94.0557 123.561 93.9993 123.808 93.943V51.1311C123.557 51.056 123.305 50.9846 123.058 50.917ZM123.058 48.1788V85.6683C123.309 85.5857 123.561 85.5068 123.808 85.4317V48.5206C123.557 48.4042 123.309 48.2915 123.058 48.1788ZM123.058 48.1788V85.6683C123.309 85.5857 123.561 85.5068 123.808 85.4317V48.5206C123.557 48.4042 123.309 48.2915 123.058 48.1788Z" fill="#2F2E41"/>
<path d="M89.6316 87.8449C89.4845 87.5016 89.264 87.1947 88.9856 86.9459C88.7072 86.6971 88.3777 86.5124 88.0202 86.4049C87.6628 86.2973 87.2862 86.2695 86.9168 86.3234C86.5475 86.3773 86.1945 86.5116 85.8826 86.7169L78.6886 81.1841L78.3486 85.8907L85.2324 90.4232C85.6116 90.9247 86.1614 91.2696 86.7777 91.3925C87.3939 91.5153 88.0338 91.4077 88.5761 91.0899C89.1184 90.7721 89.5253 90.2662 89.7199 89.6681C89.9144 89.0701 89.883 88.4214 89.6316 87.8449Z" fill="#FFB6B6"/>
<path d="M60.6425 54.4543L58.2753 53.3345C58.2753 53.3345 54.4616 54.4082 56.3144 59.4558L67.527 80.3635L81.2161 88.3855L85.4836 84.6004L71.7846 73.7512L60.6425 54.4543Z" fill="#3F3D56"/>
</g>
<defs>
<clipPath id="clip0_623_3927">
<rect width="353" height="163" fill="white"/>
</clipPath>
</defs>
</svg>
