<svg width="172" height="197" viewBox="0 0 172 197" fill="none" xmlns="http://www.w3.org/2000/svg">
<g clip-path="url(#clip0_279_5050)">
<path d="M161.947 160.522C161.609 159.953 160.144 160.563 159.874 160.046C159.606 159.532 160.967 158.748 161.745 156.957C161.885 156.634 162.769 154.599 162.114 153.971C160.874 152.78 155.2 157.693 153.214 156.085C152.778 155.732 152.474 155.028 151.155 153.884C150.63 153.43 150.313 153.224 150.006 153.301C149.57 153.409 149.536 153.99 149.069 155.133C148.368 156.846 147.953 156.743 147.545 158.11C147.242 159.125 147.311 159.715 146.955 159.83C146.45 159.993 145.986 158.916 145.346 159.012C144.693 159.111 144.299 160.364 144.174 161.303C143.94 163.064 144.589 164.226 144.949 165.448C145.34 166.775 145.572 168.795 144.669 171.654L135.734 196.74C137.707 191.593 143.418 177.481 145.818 172.238C146.511 170.724 147.276 169.188 148.847 168.582C150.359 167.999 152.436 168.347 155.084 167.712C155.393 167.637 156.251 167.42 156.359 166.917C156.448 166.501 155.943 166.269 156.021 165.879C156.125 165.357 157.118 165.351 158.337 164.748C159.197 164.323 159.733 163.818 160.194 163.383C160.333 163.252 162.398 161.28 161.947 160.522Z" fill="#F2F2F2"/>
<path d="M126.795 173.729C126.417 173.731 126.294 174.623 125.962 174.606C125.632 174.588 125.638 173.696 124.98 172.799C124.862 172.638 124.114 171.618 123.616 171.757C122.672 172.02 123.455 176.213 122.09 176.72C121.79 176.831 121.356 176.777 120.412 177.092C120.036 177.218 119.844 177.314 119.793 177.486C119.72 177.73 119.997 177.915 120.425 178.473C121.066 179.31 120.896 179.483 121.451 180.077C121.864 180.518 122.174 180.655 122.128 180.862C122.063 181.156 121.398 181.073 121.261 181.413C121.121 181.761 121.625 182.315 122.051 182.647C122.851 183.27 123.611 183.287 124.316 183.464C125.083 183.656 126.145 184.125 127.292 185.392L137.07 197C135.103 194.55 129.801 187.685 127.911 184.998C127.366 184.222 126.83 183.405 126.985 182.462C127.134 181.554 127.905 180.639 128.355 179.16C128.408 178.988 128.549 178.505 128.332 178.307C128.153 178.144 127.893 178.324 127.724 178.173C127.496 177.972 127.78 177.484 127.835 176.714C127.873 176.171 127.779 175.763 127.698 175.412C127.674 175.306 127.298 173.727 126.795 173.729Z" fill="#F2F2F2"/>
<path d="M134.335 175.416L134.107 173.39L134.211 173.237C134.693 172.527 134.938 171.833 134.941 171.175C134.942 171.07 134.937 170.965 134.932 170.859C134.912 170.436 134.888 169.911 135.163 169.299C135.317 168.957 135.749 168.167 136.4 168.265C136.575 168.289 136.708 168.37 136.809 168.463C136.823 168.44 136.838 168.416 136.855 168.391C137.057 168.083 137.218 167.951 137.372 167.824C137.491 167.726 137.614 167.625 137.806 167.387C137.891 167.282 137.956 167.19 138.012 167.113C138.18 166.879 138.4 166.6 138.788 166.605C139.202 166.625 139.419 166.966 139.563 167.192C139.819 167.595 139.936 167.885 140.013 168.078C140.041 168.148 140.073 168.228 140.089 168.252C140.222 168.448 141.307 168.265 141.716 168.198C142.634 168.046 143.429 167.914 143.756 168.491C143.991 168.904 143.817 169.449 143.223 170.157C143.038 170.377 142.841 170.544 142.666 170.675C142.811 170.761 142.941 170.893 142.993 171.1C143.117 171.591 142.693 172.083 141.735 172.565C141.497 172.685 141.176 172.845 140.727 172.923C140.516 172.959 140.325 172.968 140.162 172.973C140.159 173.066 140.137 173.168 140.079 173.273C139.911 173.581 139.561 173.728 139.033 173.692C138.452 173.662 137.973 173.552 137.551 173.455C137.183 173.371 136.865 173.299 136.616 173.316C136.153 173.353 135.797 173.722 135.379 174.2L134.335 175.416Z" fill="#F2F2F2"/>
<path d="M135.391 163.355L133.483 164.088L133.307 164.027C132.496 163.743 131.761 163.682 131.121 163.847C131.019 163.873 130.919 163.904 130.817 163.936C130.411 164.062 129.908 164.219 129.244 164.109C128.873 164.047 127.996 163.83 127.926 163.178C127.906 163.003 127.95 162.855 128.015 162.734C127.989 162.726 127.962 162.717 127.934 162.708C127.583 162.591 127.414 162.47 127.252 162.353C127.126 162.263 126.998 162.171 126.717 162.046C126.594 161.991 126.488 161.951 126.399 161.917C126.129 161.814 125.803 161.673 125.71 161.298C125.623 160.894 125.9 160.598 126.083 160.402C126.409 160.052 126.661 159.867 126.829 159.743C126.89 159.699 126.959 159.648 126.978 159.626C127.134 159.448 126.682 158.448 126.513 158.071C126.132 157.225 125.803 156.492 126.28 156.03C126.621 155.699 127.195 155.729 128.032 156.122C128.293 156.244 128.505 156.392 128.676 156.527C128.723 156.366 128.818 156.207 129.006 156.104C129.452 155.86 130.037 156.144 130.747 156.945C130.924 157.144 131.161 157.413 131.35 157.826C131.439 158.021 131.496 158.202 131.542 158.358C131.634 158.337 131.738 158.333 131.854 158.361C132.196 158.446 132.427 158.746 132.527 159.264C132.645 159.832 132.659 160.321 132.672 160.753C132.684 161.129 132.695 161.453 132.774 161.689C132.928 162.126 133.376 162.376 133.946 162.657L135.391 163.355Z" fill="#F2F2F2"/>
<path d="M134.335 157.387L134.107 155.362L134.211 155.208C134.693 154.498 134.938 153.804 134.941 153.146C134.942 153.042 134.937 152.937 134.932 152.83C134.912 152.408 134.888 151.882 135.163 151.27C135.317 150.929 135.749 150.139 136.4 150.236C136.575 150.261 136.708 150.341 136.809 150.435C136.823 150.411 136.838 150.388 136.855 150.362C137.057 150.054 137.218 149.922 137.372 149.795C137.491 149.697 137.614 149.597 137.806 149.358C137.891 149.253 137.956 149.161 138.012 149.084C138.18 148.85 138.4 148.572 138.788 148.576C139.202 148.596 139.419 148.937 139.563 149.163C139.819 149.566 139.936 149.857 140.013 150.05C140.041 150.12 140.073 150.199 140.089 150.224C140.222 150.419 141.307 150.236 141.716 150.17C142.634 150.017 143.429 149.885 143.756 150.462C143.991 150.875 143.817 151.421 143.223 152.128C143.038 152.348 142.841 152.515 142.666 152.646C142.811 152.732 142.941 152.865 142.993 153.072C143.117 153.563 142.693 154.055 141.735 154.536C141.497 154.656 141.176 154.817 140.727 154.894C140.516 154.93 140.325 154.939 140.162 154.944C140.159 155.038 140.137 155.14 140.079 155.244C139.911 155.552 139.561 155.699 139.033 155.664C138.452 155.634 137.973 155.523 137.551 155.426C137.183 155.342 136.865 155.271 136.616 155.287C136.153 155.324 135.797 155.693 135.379 156.172L134.335 157.387Z" fill="#F2F2F2"/>
<path d="M136.415 196.707L135.989 196.441L135.492 196.498C135.484 196.452 135.458 196.347 135.417 196.181C135.194 195.276 134.517 192.519 133.951 188.178C133.557 185.148 133.334 182.033 133.287 178.918C133.241 175.797 133.389 173.435 133.508 171.537C133.598 170.105 133.707 168.741 133.814 167.413C134.099 163.864 134.367 160.512 134.167 156.801C134.123 155.973 134.03 154.249 133.019 152.414C132.433 151.349 131.625 150.405 130.618 149.606L131.244 148.822C132.356 149.704 133.25 150.751 133.901 151.932C135.022 153.967 135.123 155.846 135.171 156.749C135.375 160.525 135.103 163.909 134.816 167.492C134.71 168.816 134.601 170.173 134.511 171.599C134.394 173.48 134.247 175.822 134.292 178.902C134.338 181.98 134.558 185.057 134.948 188.049C135.506 192.335 136.174 195.051 136.393 195.943C136.51 196.419 136.535 196.519 136.415 196.707Z" fill="#F2F2F2"/>
<path d="M128.774 151.198C128.733 151.198 128.691 151.197 128.649 151.194C127.793 151.148 127.001 150.637 126.293 149.677C125.961 149.225 125.792 148.709 125.453 147.681C125.4 147.523 125.145 146.719 124.99 145.613C124.889 144.89 124.901 144.588 125.045 144.321C125.205 144.023 125.463 143.816 125.753 143.676C125.74 143.58 125.751 143.481 125.793 143.381C125.964 142.963 126.419 143.018 126.666 143.044C126.79 143.06 126.946 143.08 127.114 143.072C127.378 143.059 127.519 142.981 127.734 142.863C127.94 142.751 128.196 142.611 128.575 142.534C129.323 142.378 129.95 142.589 130.156 142.659C131.243 143.02 131.779 143.862 132.4 144.837C132.523 145.033 132.948 145.745 133.228 146.721C133.43 147.425 133.402 147.738 133.341 147.971C133.217 148.449 132.925 148.723 132.184 149.328C131.409 149.96 131.021 150.277 130.687 150.47C129.91 150.917 129.422 151.198 128.774 151.198Z" fill="#F2F2F2"/>
<path d="M96.4649 56.1223C99.1841 54.7678 100.687 52.2716 99.8214 50.5472C98.9561 48.8229 96.0507 48.5235 93.3308 49.879C92.2368 50.4055 91.2853 51.1855 90.5559 52.1537L79.1074 58.0381L81.9929 63.3331L92.9727 56.9699C94.188 56.9694 95.3855 56.6788 96.4649 56.1223Z" fill="#FFB6B6"/>
<path d="M31.6007 193.007L37.0503 193.006L39.6426 172.059L31.5996 172.059L31.6007 193.007Z" fill="#FFB6B6"/>
<path d="M50.2714 192.883C50.4411 193.168 50.5306 194.087 50.5306 194.418C50.5306 195.436 49.7025 196.262 48.681 196.262H31.8044C31.1075 196.262 30.5426 195.699 30.5426 195.004V194.304C30.5426 194.304 29.7077 192.199 31.4265 189.606C31.4265 189.606 33.5628 191.637 36.755 188.456L37.6964 186.756L44.5104 191.722L48.2874 192.186C49.1137 192.287 49.8463 192.17 50.2714 192.883Z" fill="#2F2E41"/>
<path d="M40.1582 169.974L44.9979 172.47L56.9642 155.056L49.8214 151.371L40.1582 169.974Z" fill="#FFB6B6"/>
<path d="M56.7953 178.419C56.8146 178.75 56.4701 179.607 56.3173 179.901C55.8476 180.805 54.7315 181.158 53.8244 180.69L38.8372 172.958C38.2184 172.639 37.9764 171.88 38.2968 171.263L38.6198 170.641C38.6198 170.641 38.8494 168.39 41.5725 166.874C41.5725 166.874 42.5326 169.656 46.835 168.294L48.455 167.216L52.215 174.748L55.3553 176.89C56.0423 177.359 56.747 177.591 56.7953 178.419Z" fill="#2F2E41"/>
<path d="M26.0669 26.7422H40.3583L40.0465 31.3859L49.3662 60.9897L51.1136 80.7255L33.6391 83.6278L25.4844 47.0585L27.2318 30.225L26.0669 26.7422Z" fill="#1C6F37"/>
<path d="M26.9405 30.5151L11.7959 38.0612L21.1156 69.4063L19.3682 101.332C19.3682 101.332 43.25 108.878 42.085 87.4008C40.9201 65.9236 40.9201 62.4408 40.9201 62.4408L26.9405 30.5151Z" fill="#2F2E41"/>
<path d="M51.1133 34.4252C51.1133 34.4252 54.8994 31.676 56.6469 35.7393C58.3943 39.8025 69.7527 60.4091 69.7527 60.4091L87.5185 52.5728L90.4309 58.9579C90.4309 58.9579 75.8688 72.8891 67.1316 71.1477C58.3943 69.4063 51.4045 54.3142 51.4045 54.3142L51.1133 34.4252Z" fill="#2F2E41"/>
<path d="M21.1153 95.5275C21.1153 95.5275 20.5329 104.815 21.6978 112.361C22.8628 119.907 30.7263 184.048 30.7263 184.048L40.6285 183.468L41.5023 108.298L55.4818 130.355L43.2497 163.442L51.6957 167.215L69.4614 130.936L57.2293 89.7228L53.7344 79.2744L27.5227 82.1767L21.1153 95.5275Z" fill="#2F2E41"/>
<path d="M60.1423 97.8493C60.1423 97.8493 44.4153 102.493 40.9204 62.4408L40.1299 30.1467L54.9 33.998L53.1525 63.0213L60.1423 97.8493Z" fill="#2F2E41"/>
<path d="M33.348 22.969C39.1385 22.969 43.8327 18.2911 43.8327 12.5206C43.8327 6.75017 39.1385 2.07227 33.348 2.07227C27.5574 2.07227 22.8633 6.75017 22.8633 12.5206C22.8633 18.2911 27.5574 22.969 33.348 22.969Z" fill="#FFB6B6"/>
<path d="M26.6489 22.6789C26.6489 22.6789 21.9891 17.4547 21.4066 15.1329C20.8241 12.811 20.8241 6.42586 21.4066 5.8454C21.9891 5.26493 28.3964 -0.539722 30.7263 0.0407409C33.0562 0.621204 37.6747 3.52353 41.7935 3.52353C42.9585 3.52353 43.5409 9.32819 43.5409 9.32819L38.8811 9.90866C38.8811 9.90866 33.0562 7.00633 33.6387 9.90866C34.2212 12.811 29.5613 12.811 29.5613 12.811L30.1438 15.1329L28.3964 15.7133L27.2314 13.3915C27.2314 13.3915 27.8139 18.6156 29.5614 20.9375C31.3088 23.2594 26.6489 22.6789 26.6489 22.6789Z" fill="#2F2E41"/>
<path d="M22.0062 106.256C23.6048 108.832 26.2347 110.099 27.8801 109.085C29.5255 108.071 29.5632 105.161 27.9637 102.583C27.339 101.545 26.4738 100.671 25.4406 100.034L18.5291 89.2009L13.4971 92.5414L20.8448 102.866C20.9547 104.072 21.353 105.234 22.0062 106.256Z" fill="#FFB6B6"/>
<path d="M14.1257 38.0613H11.2133C11.2133 38.0613 -0.436343 64.1822 0.146137 69.4064C0.146137 69.4064 0.146137 74.0502 3.05855 77.533C5.97097 81.0157 18.2031 100.752 18.2031 100.752L23.4455 96.6883L12.9608 72.3088L19.3681 46.7683L14.1257 38.0613Z" fill="#2F2E41"/>
<path d="M171.676 196.252C171.676 196.437 171.525 196.588 171.339 196.588H0.336914C0.150844 196.588 0 196.437 0 196.252C0 196.067 0.15084 195.916 0.336914 195.916H171.339C171.525 195.916 171.676 196.067 171.676 196.252Z" fill="#E6E6E6"/>
<path d="M108.643 74.3936C107.267 74.3936 105.956 73.8334 105.013 72.8342C98.9394 66.4002 95.5947 57.993 95.5947 49.1613C95.5947 41.8016 97.8858 34.7751 102.22 28.8411C103.077 27.6688 104.406 26.9331 105.867 26.8228C107.351 26.7088 108.803 27.2506 109.85 28.3041L127.462 46.0323C129.224 47.8065 129.404 50.639 127.881 52.6209L112.661 72.4182C111.756 73.5946 110.385 74.3122 108.899 74.3871C108.813 74.3914 108.728 74.3936 108.643 74.3936Z" fill="#1C6F37"/>
<path d="M136.705 84.7333C131.275 84.7333 126.064 83.5339 121.218 81.1685C119.458 80.3094 118.191 78.7259 117.742 76.8235C117.294 74.9211 117.72 72.941 118.913 71.3907L131.596 54.8927C133.903 51.8916 133.63 47.602 130.961 44.9149L117.977 31.8459C116.101 29.9567 115.25 27.3658 115.643 24.7374C116.038 22.0953 117.621 19.8512 119.986 18.5807C125.317 15.716 131.359 14.2661 137.458 14.3965C155.839 14.7786 170.989 29.3941 171.95 47.6697C172.463 57.4335 169.04 66.7022 162.31 73.7681C155.577 80.8391 146.484 84.7333 136.705 84.7333ZM136.718 15.5878C131.07 15.5878 132.421 20.9269 127.48 23.5815C125.453 24.6708 117.172 22.6494 116.833 24.9142C116.496 27.1652 117.225 29.3843 118.833 31.0024L131.816 44.0714C134.906 47.182 135.222 52.1476 132.551 55.6219L119.868 72.1198C118.895 73.384 118.548 74.9984 118.914 76.5495C119.279 78.1003 120.312 79.3914 121.747 80.092C126.427 82.3762 131.46 74.3415 136.705 74.3415C146.15 74.3415 154.934 79.7728 161.438 72.943C167.938 66.1177 171.244 57.1644 170.748 47.7326C169.821 30.0808 155.187 15.9644 137.433 15.5952C137.195 15.5903 136.956 15.5878 136.718 15.5878Z" fill="#E6E6E6"/>
<path d="M139.018 49.7062C138.332 48.9077 137.989 47.7388 137.989 46.199C137.989 44.6741 138.332 43.5119 139.018 42.7133C139.704 41.9149 140.653 41.5156 141.866 41.5156C143.093 41.5156 144.054 41.9149 144.747 42.7133C145.44 43.5119 145.786 44.6741 145.786 46.199C145.786 47.7388 145.44 48.9077 144.747 49.7062C144.054 50.5048 143.093 50.9041 141.866 50.9041C140.653 50.9041 139.704 50.5048 139.018 49.7062ZM143.101 48.4652C143.36 48.0048 143.49 47.2496 143.49 46.199C143.49 45.1776 143.357 44.4331 143.09 43.9653C142.822 43.4979 142.415 43.2639 141.866 43.2639C141.332 43.2639 140.935 43.4979 140.675 43.9653C140.415 44.4331 140.285 45.1776 140.285 46.199C140.285 47.2349 140.415 47.9871 140.675 48.4545C140.935 48.9223 141.332 49.1559 141.866 49.1559C142.429 49.1559 142.841 48.926 143.101 48.4652ZM142.908 55.0436L150.638 41.7313C151.705 41.7313 152.371 42.8836 151.835 43.8035L144.097 57.0985C143.039 57.0985 142.378 55.9564 142.908 55.0436ZM149.999 56.0516C149.313 55.253 148.97 54.0768 148.97 52.5228C148.97 50.9978 149.313 49.8395 149.999 49.048C150.684 48.2568 151.641 47.861 152.868 47.861C154.095 47.861 155.052 48.2568 155.738 49.048C156.424 49.8395 156.767 51.005 156.767 52.5444C156.767 54.0842 156.424 55.253 155.738 56.0516C155.052 56.8502 154.095 57.2495 152.868 57.2495C151.641 57.2495 150.684 56.8502 149.999 56.0516ZM154.081 54.7999C154.341 54.3325 154.471 53.5805 154.471 52.5444C154.471 51.523 154.337 50.7784 154.07 50.3106C153.803 49.8432 153.402 49.6092 152.868 49.6092C152.319 49.6092 151.915 49.8432 151.656 50.3106C151.395 50.7784 151.266 51.523 151.266 52.5444C151.266 53.5805 151.395 54.3325 151.656 54.7999C151.915 55.2677 152.319 55.5013 152.868 55.5013C153.417 55.5013 153.821 55.2677 154.081 54.7999Z" fill="#1C6F37"/>
</g>
<defs>
<clipPath id="clip0_279_5050">
<rect width="172" height="197" fill="white"/>
</clipPath>
</defs>
</svg>
