<svg width="190" height="253" viewBox="0 0 190 253" fill="none" xmlns="http://www.w3.org/2000/svg">
<g clip-path="url(#clip0_310_70898)">
<path d="M152.086 87.417H133.44V80.5461C133.44 69.0293 141.795 59.6791 152.086 59.6791L152.086 87.417Z" fill="#2F2E41"/>
<path d="M147.953 74.5905L151.159 90.7278L132.373 87.2368L140.028 71.9749L147.953 74.5905Z" fill="#A0616A"/>
<path opacity="0.1" d="M147.953 74.5905L151.159 90.7278L132.373 87.2368L140.028 71.9749L147.953 74.5905Z" fill="black"/>
<path d="M129.942 138.895H147.953V109.063H129.942V138.895Z" fill="#A0616A"/>
<path d="M159.661 163.285L155.698 187.07C155.698 187.07 158.22 203.598 150.655 220.53L145.612 237.864L138.047 236.655C138.047 236.655 142.73 223.755 142.73 218.111C142.73 212.467 143.811 190.698 143.811 190.698L143.27 165.857L159.661 163.285Z" fill="#2F2E41"/>
<path d="M136.966 236.252C136.966 236.252 145.612 232.624 146.332 237.865L145.972 240.283C145.972 240.283 149.214 251.168 144.531 251.974C139.848 252.781 135.525 253.99 135.165 251.571C134.805 249.152 134.811 246.133 135.708 244.014C136.606 241.896 136.966 236.252 136.966 236.252Z" fill="#2F2E41"/>
<path d="M132.391 159.595L130.287 183.675C130.287 183.675 123.757 198.767 126.816 217.385L127.352 235.605L134.919 236.798C134.919 236.798 133.627 222.949 135.029 217.528C136.432 212.107 140.804 190.86 140.804 190.86L147.496 167.168L132.391 159.595Z" fill="#2F2E41"/>
<path d="M136.057 236.747C136.057 236.747 128.655 230.571 126.66 235.381L126.405 237.816C126.405 237.816 120.586 247.263 124.884 249.495C129.182 251.727 133.033 254.234 133.98 252.022C134.928 249.811 135.672 246.909 135.337 244.595C135.001 242.28 136.057 236.747 136.057 236.747Z" fill="#2F2E41"/>
<path d="M155.338 125.188C163.81 134.036 164.439 148.035 159.481 164.696C159.481 164.696 143.631 176.79 132.103 161.471L126.34 130.429L155.338 125.188Z" fill="#2F2E41"/>
<path d="M141.109 82.0533L150.115 83.6659L149.394 109.063L159.48 131.639L146.512 138.895C146.512 138.895 136.426 117.529 134.625 104.226C132.824 90.9223 133.904 81.2471 133.904 81.2471L141.109 82.0533Z" fill="#1C6F37"/>
<path d="M134.265 82.8595L125.259 84.472L125.979 109.869L123.818 133.251L128.861 139.701C128.861 139.701 138.948 118.335 140.749 105.032C142.55 91.7284 141.469 82.0532 141.469 82.0532L134.265 82.8595Z" fill="#1C6F37"/>
<path d="M145.071 83.4642L147.053 82.8595C147.053 82.8595 154.077 81.8517 155.158 85.0768C156.238 88.3018 155.878 107.249 155.878 107.249C155.878 107.249 157.737 130.504 150.504 130.769C143.27 131.034 144.711 111.684 144.711 111.684L145.071 83.4642Z" fill="#1C6F37"/>
<path d="M144.81 79.0191C149.959 79.0191 154.133 74.3479 154.133 68.5856C154.133 62.8233 149.959 58.1521 144.81 58.1521C139.661 58.1521 135.487 62.8233 135.487 68.5856C135.487 74.3479 139.661 79.0191 144.81 79.0191Z" fill="#A0616A"/>
<path d="M133.184 84.2704L131.203 83.6657C131.203 83.6657 124.178 82.6579 123.098 85.8829C122.017 89.108 122.377 108.055 122.377 108.055C122.377 108.055 120.518 131.31 127.752 131.575C134.985 131.84 133.544 112.49 133.544 112.49L133.184 84.2704Z" fill="#1C6F37"/>
<path d="M139.424 82.945C137.424 82.3772 135.157 84.7677 134.359 88.2859C134.023 89.6865 133.992 91.1566 134.268 92.5734L133.408 96.5727L133.345 96.569L126.566 114.447C124.99 118.604 125.157 123.377 127.167 127.292C128.363 129.621 129.933 131.187 131.776 129.589C134.835 126.936 136.832 111.75 137.745 103.027L139.854 94.1596C140.7 93.0612 141.3 91.7519 141.601 90.3412C142.399 86.8243 141.424 83.5129 139.424 82.945Z" fill="#A0616A"/>
<path d="M126.961 77.0265C127.435 75.4129 128.371 74.0001 128.79 72.3674C129.346 70.1994 130.53 75.0089 130.646 72.7571C130.865 68.4772 136.702 57.4677 140.034 55.353C143.367 53.2382 145.281 53.8758 148.675 55.8619C148.675 55.8619 150.323 55.9792 152.375 57.1127C154.426 58.2462 156.273 60.0616 157.071 62.4613C157.703 64.3634 157.633 66.4523 157.845 68.468C158.434 74.0836 161.246 79.4243 160.643 85.038C160.454 86.7894 159.859 88.6005 158.58 89.6306C157.3 90.6608 155.233 90.5487 154.391 89.0576C154.103 88.5488 153.982 87.9451 153.735 87.41C153.489 86.8748 153.044 86.3759 152.506 86.3926C151.698 86.4176 151.287 87.6312 151.605 88.4628C151.924 89.2944 152.673 89.7964 153.376 90.243C151.701 91.0862 149.624 90.8236 148.159 89.5837C146.695 88.3438 145.904 86.1779 146.174 84.145C146.553 81.2803 150.283 81.8733 150.722 79.0192C151.042 76.9416 152.165 73.4652 151.859 71.385C151.553 69.3047 150.084 71.8235 151.631 70.6215C149.929 71.5401 146.287 65.2559 144.504 64.552C142.722 63.8481 141.21 62.324 140.4 60.413C138.509 63.4801 136.846 62.6472 136.169 66.2954C135.492 69.9437 136.118 78.2321 138.906 80.269C137.79 81.1209 136.901 82.3393 136.377 83.7328C136.08 84.5222 135.888 85.3859 135.396 86.0416C134.456 87.2938 132.72 87.3699 131.336 86.8434C129.62 86.1906 128.153 84.7567 127.345 82.9419C126.536 81.1271 126.395 78.9531 126.961 77.0265Z" fill="#2F2E41"/>
<path d="M0.5 252.416C0.5 252.683 0.690931 252.896 0.928691 252.896H189.071C189.309 252.896 189.5 252.683 189.5 252.416C189.5 252.15 189.309 251.937 189.071 251.937H0.928691C0.690931 251.937 0.5 252.15 0.5 252.416Z" fill="#3F3D56"/>
<path d="M122.991 0.403076H48.9033C40.5017 0.403076 33.6909 8.02512 33.6909 17.4274V235.294C33.6909 244.696 40.5017 252.318 48.9032 252.318H122.991C131.392 252.318 138.203 244.696 138.203 235.294V17.4274C138.203 8.02512 131.392 0.403076 122.991 0.403076Z" fill="white"/>
<path d="M122.991 252.721H48.9031C40.3165 252.721 33.3306 244.904 33.3306 235.294V17.4275C33.3306 7.818 40.3165 0 48.9031 0H122.991C131.577 0 138.563 7.818 138.563 17.4275V235.294C138.563 244.904 131.577 252.721 122.991 252.721ZM48.9031 0.806268C40.7136 0.806268 34.051 8.26247 34.051 17.4275V235.294C34.051 244.459 40.7136 251.915 48.9031 251.915H122.991C131.18 251.915 137.843 244.459 137.843 235.294V17.4275C137.843 8.26247 131.18 0.806268 122.991 0.806268H48.9031Z" fill="#3F3D56"/>
<path d="M27.5688 38.123C26.9183 38.123 26.3894 38.715 26.3894 39.4429V50.0015C26.3894 50.7294 26.9183 51.3213 27.5688 51.3213C28.2192 51.3213 28.7481 50.7294 28.7481 50.0015V39.4429C28.7481 38.715 28.2192 38.123 27.5688 38.123Z" fill="#3F3D56"/>
<path d="M128.357 35.2587H98.5781C97.315 35.2587 96.2874 34.1087 96.2874 32.6951C96.2874 31.2816 97.315 30.1316 98.5781 30.1316H128.357C129.62 30.1316 130.648 31.2816 130.648 32.6951C130.648 34.1087 129.62 35.2587 128.357 35.2587Z" fill="#E6E6E6"/>
<path d="M100.42 55.4182H71.4736C70.7438 55.4182 70.15 54.7537 70.15 53.937C70.15 53.1203 70.7438 52.4561 71.4736 52.4561H100.42C101.15 52.4561 101.744 53.1203 101.744 53.937C101.744 54.7537 101.15 55.4182 100.42 55.4182Z" fill="#1C6F37"/>
<path d="M28.7138 62.7282C41.6253 62.7282 52.0921 51.2615 52.0921 37.1165C52.0921 22.9715 41.6253 11.5048 28.7138 11.5048C15.8023 11.5048 5.33545 22.9715 5.33545 37.1165C5.33545 51.2615 15.8023 62.7282 28.7138 62.7282Z" fill="#1C6F37"/>
<path d="M36.6484 24.1979C33.536 30.5403 30.4236 36.8827 27.3112 43.2251C25.3276 39.3028 23.3548 35.3735 21.3662 31.4543C20.6795 30.1007 18.8115 31.3182 19.5 32.6751C21.8051 37.2184 24.0864 41.7768 26.3915 46.3201C26.7856 47.0969 27.8677 47.1149 28.2578 46.3201C31.6767 39.3529 35.0957 32.3858 38.5147 25.4187C39.1846 24.0535 37.3188 22.8316 36.6484 24.1979Z" fill="white"/>
<path d="M59.507 5.90906H42.9806C42.9189 5.90906 42.8689 5.96505 42.8689 6.03411V8.1872C42.8689 8.25627 42.9189 8.31226 42.9806 8.31226H59.507C59.5687 8.31226 59.6187 8.25627 59.6187 8.1872V6.03411C59.6187 5.96505 59.5687 5.90906 59.507 5.90906Z" fill="#E6E6E6"/>
<path d="M115.173 8.31228C116.122 8.31228 116.891 7.45152 116.891 6.38972C116.891 5.32792 116.122 4.46716 115.173 4.46716C114.224 4.46716 113.455 5.32792 113.455 6.38972C113.455 7.45152 114.224 8.31228 115.173 8.31228Z" fill="#E6E6E6"/>
<path d="M119.897 8.31228C120.846 8.31228 121.615 7.45152 121.615 6.38972C121.615 5.32792 120.846 4.46716 119.897 4.46716C118.949 4.46716 118.18 5.32792 118.18 6.38972C118.18 7.45152 118.949 8.31228 119.897 8.31228Z" fill="#E6E6E6"/>
<path d="M124.622 8.31228C125.571 8.31228 126.34 7.45152 126.34 6.38972C126.34 5.32792 125.571 4.46716 124.622 4.46716C123.673 4.46716 122.904 5.32792 122.904 6.38972C122.904 7.45152 123.673 8.31228 124.622 8.31228Z" fill="#E6E6E6"/>
<path d="M48.7229 63.3467C48.7229 63.6128 48.9138 63.8264 49.1516 63.8264H122.742C122.98 63.8264 123.171 63.6128 123.171 63.3467C123.171 63.0806 122.98 62.8669 122.742 62.8669H49.1516C48.9138 62.8669 48.7229 63.0806 48.7229 63.3467Z" fill="#3F3D56"/>
<path d="M115.685 101.052H71.5222C70.7924 101.052 70.1986 100.387 70.1986 99.5708C70.1986 98.7541 70.7924 98.0898 71.5222 98.0898H115.685C116.415 98.0898 117.009 98.7541 117.009 99.5708C117.009 100.387 116.415 101.052 115.685 101.052Z" fill="#1C6F37"/>
<path d="M115.685 122.418H71.5222C70.7924 122.418 70.1986 121.754 70.1986 120.937C70.1986 120.12 70.7924 119.456 71.5222 119.456H115.685C116.415 119.456 117.009 120.12 117.009 120.937C117.009 121.754 116.415 122.418 115.685 122.418Z" fill="#1C6F37"/>
<path d="M115.685 143.784H71.5222C70.7924 143.784 70.1986 143.12 70.1986 142.303C70.1986 141.486 70.7924 140.822 71.5222 140.822H115.685C116.415 140.822 117.009 141.486 117.009 142.303C117.009 143.12 116.415 143.784 115.685 143.784Z" fill="#1C6F37"/>
<path d="M58.1273 103.016C59.9178 103.016 61.3693 101.392 61.3693 99.388C61.3693 97.3842 59.9178 95.7598 58.1273 95.7598C56.3368 95.7598 54.8853 97.3842 54.8853 99.388C54.8853 101.392 56.3368 103.016 58.1273 103.016Z" fill="#1C6F37"/>
<path d="M57.7671 105.435V104.629C60.4486 104.629 62.6301 102.187 62.6301 99.1863C62.6301 96.1855 60.4486 93.744 57.7671 93.744V92.9377C60.8459 92.9377 63.3506 95.7408 63.3506 99.1863C63.3506 102.632 60.8459 105.435 57.7671 105.435Z" fill="#3F3D56"/>
<path d="M58.1273 124.382C59.9178 124.382 61.3693 122.758 61.3693 120.754C61.3693 118.75 59.9178 117.126 58.1273 117.126C56.3368 117.126 54.8853 118.75 54.8853 120.754C54.8853 122.758 56.3368 124.382 58.1273 124.382Z" fill="#1C6F37"/>
<path d="M57.7671 126.801V125.995C60.4486 125.995 62.6301 123.554 62.6301 120.553C62.6301 117.552 60.4486 115.11 57.7671 115.11V114.304C60.8459 114.304 63.3506 117.107 63.3506 120.553C63.3506 123.998 60.8459 126.801 57.7671 126.801Z" fill="#3F3D56"/>
<path d="M58.1273 145.748C59.9178 145.748 61.3693 144.124 61.3693 142.12C61.3693 140.116 59.9178 138.492 58.1273 138.492C56.3368 138.492 54.8853 140.116 54.8853 142.12C54.8853 144.124 56.3368 145.748 58.1273 145.748Z" fill="#1C6F37"/>
<path d="M57.7671 148.167V147.361C60.4486 147.361 62.6301 144.92 62.6301 141.918C62.6301 138.917 60.4486 136.476 57.7671 136.476V135.67C60.8459 135.67 63.3506 138.473 63.3506 141.918C63.3506 145.364 60.8459 148.167 57.7671 148.167Z" fill="#3F3D56"/>
<path d="M138.831 82.1386C140.831 81.5708 143.099 83.9613 143.897 87.4795C144.232 88.8801 144.264 90.3502 143.988 91.767L144.847 95.7663L144.91 95.7626L151.689 113.641C153.265 117.798 153.099 122.57 151.089 126.486C149.893 128.815 148.323 130.381 146.479 128.782C143.421 126.13 141.423 110.944 140.511 102.221L138.402 93.3532C137.555 92.2548 136.956 90.9455 136.654 89.5348C135.857 86.0179 136.831 82.7065 138.831 82.1386Z" fill="#A0616A"/>
<path d="M146.532 91.9358L138.948 97.9691L142.74 124.694L147.496 131.578L153.036 129.434L154.656 116.8L152.749 104.582L146.532 91.9358Z" fill="#1C6F37"/>
</g>
<defs>
<clipPath id="clip0_310_70898">
<rect width="189" height="253" fill="white" transform="translate(0.5)"/>
</clipPath>
</defs>
</svg>
