<svg width="48" height="48" viewBox="0 0 48 48" fill="none" xmlns="http://www.w3.org/2000/svg">
<rect width="48" height="48" rx="24" fill="white"/>
<path fill-rule="evenodd" clip-rule="evenodd" d="M18.448 13.75C17.5495 13.75 16.8003 13.7499 16.2055 13.8299C15.5777 13.9143 15.0109 14.1 14.5555 14.5555C14.1 15.0109 13.9143 15.5777 13.8299 16.2055C13.7499 16.8003 13.75 17.5495 13.75 18.448V18.552C13.75 19.4505 13.7499 20.1997 13.8299 20.7945C13.9143 21.4223 14.1 21.9891 14.5555 22.4445C15.0109 22.9 15.5777 23.0857 16.2055 23.1701C16.8003 23.2501 17.5495 23.25 18.448 23.25H18.552C19.4505 23.25 20.1997 23.2501 20.7945 23.1701C21.4223 23.0857 21.9891 22.9 22.4445 22.4445C22.9 21.9891 23.0857 21.4223 23.1701 20.7945C23.2501 20.1997 23.25 19.4505 23.25 18.552V18.448C23.25 17.5495 23.2501 16.8003 23.1701 16.2055C23.0857 15.5777 22.9 15.0109 22.4445 14.5555C21.9891 14.1 21.4223 13.9143 20.7945 13.8299C20.1997 13.7499 19.4505 13.75 18.552 13.75H18.448ZM15.6161 15.6161C15.7464 15.4858 15.9439 15.3786 16.4054 15.3165C16.8884 15.2516 17.536 15.25 18.5 15.25C19.464 15.25 20.1116 15.2516 20.5946 15.3165C21.0561 15.3786 21.2536 15.4858 21.3839 15.6161C21.5142 15.7464 21.6214 15.9439 21.6835 16.4054C21.7484 16.8884 21.75 17.536 21.75 18.5C21.75 19.464 21.7484 20.1116 21.6835 20.5946C21.6214 21.0561 21.5142 21.2536 21.3839 21.3839C21.2536 21.5142 21.0561 21.6214 20.5946 21.6835C20.1116 21.7484 19.464 21.75 18.5 21.75C17.536 21.75 16.8884 21.7484 16.4054 21.6835C15.9439 21.6214 15.7464 21.5142 15.6161 21.3839C15.4858 21.2536 15.3786 21.0561 15.3165 20.5946C15.2516 20.1116 15.25 19.464 15.25 18.5C15.25 17.536 15.2516 16.8884 15.3165 16.4054C15.3786 15.9439 15.4858 15.7464 15.6161 15.6161Z" fill="black"/>
<path fill-rule="evenodd" clip-rule="evenodd" d="M29.448 24.75C28.5495 24.75 27.8003 24.7499 27.2055 24.8299C26.5777 24.9143 26.0109 25.1 25.5555 25.5555C25.1 26.0109 24.9143 26.5777 24.8299 27.2055C24.7499 27.8003 24.75 28.5495 24.75 29.448V29.552C24.75 30.4505 24.7499 31.1997 24.8299 31.7945C24.9143 32.4223 25.1 32.9891 25.5555 33.4445C26.0109 33.9 26.5777 34.0857 27.2055 34.1701C27.8003 34.2501 28.5495 34.25 29.4479 34.25H29.552C30.4504 34.25 31.1997 34.2501 31.7945 34.1701C32.4223 34.0857 32.9891 33.9 33.4445 33.4445C33.9 32.9891 34.0857 32.4223 34.1701 31.7945C34.2501 31.1997 34.25 30.4505 34.25 29.5521V29.448C34.25 28.5496 34.2501 27.8003 34.1701 27.2055C34.0857 26.5777 33.9 26.0109 33.4445 25.5555C32.9891 25.1 32.4223 24.9143 31.7945 24.8299C31.1997 24.7499 30.4505 24.75 29.552 24.75H29.448ZM26.6161 26.6161C26.7464 26.4858 26.9439 26.3786 27.4054 26.3165C27.8884 26.2516 28.536 26.25 29.5 26.25C30.464 26.25 31.1116 26.2516 31.5946 26.3165C32.0561 26.3786 32.2536 26.4858 32.3839 26.6161C32.5142 26.7464 32.6214 26.9439 32.6835 27.4054C32.7484 27.8884 32.75 28.536 32.75 29.5C32.75 30.464 32.7484 31.1116 32.6835 31.5946C32.6214 32.0561 32.5142 32.2536 32.3839 32.3839C32.2536 32.5142 32.0561 32.6214 31.5946 32.6835C31.1116 32.7484 30.464 32.75 29.5 32.75C28.536 32.75 27.8884 32.7484 27.4054 32.6835C26.9439 32.6214 26.7464 32.5142 26.6161 32.3839C26.4858 32.2536 26.3786 32.0561 26.3165 31.5946C26.2516 31.1116 26.25 30.464 26.25 29.5C26.25 28.536 26.2516 27.8884 26.3165 27.4054C26.3786 26.9439 26.4858 26.7464 26.6161 26.6161Z" fill="black"/>
<path fill-rule="evenodd" clip-rule="evenodd" d="M18.448 24.75H18.552C19.4505 24.75 20.1997 24.7499 20.7945 24.8299C21.4223 24.9143 21.9891 25.1 22.4445 25.5555C22.9 26.0109 23.0857 26.5777 23.1701 27.2055C23.2501 27.8003 23.25 28.5495 23.25 29.448V29.552C23.25 30.4505 23.2501 31.1997 23.1701 31.7945C23.0857 32.4223 22.9 32.9891 22.4445 33.4445C21.9891 33.9 21.4223 34.0857 20.7945 34.1701C20.1997 34.2501 19.4505 34.25 18.5521 34.25H18.448C17.5496 34.25 16.8003 34.2501 16.2055 34.1701C15.5777 34.0857 15.0109 33.9 14.5555 33.4445C14.1 32.9891 13.9143 32.4223 13.8299 31.7945C13.7499 31.1997 13.75 30.4505 13.75 29.552V29.448C13.75 28.5495 13.7499 27.8003 13.8299 27.2055C13.9143 26.5777 14.1 26.0109 14.5555 25.5555C15.0109 25.1 15.5777 24.9143 16.2055 24.8299C16.8003 24.7499 17.5495 24.75 18.448 24.75ZM16.4054 26.3165C15.9439 26.3786 15.7464 26.4858 15.6161 26.6161C15.4858 26.7464 15.3786 26.9439 15.3165 27.4054C15.2516 27.8884 15.25 28.536 15.25 29.5C15.25 30.464 15.2516 31.1116 15.3165 31.5946C15.3786 32.0561 15.4858 32.2536 15.6161 32.3839C15.7464 32.5142 15.9439 32.6214 16.4054 32.6835C16.8884 32.7484 17.536 32.75 18.5 32.75C19.464 32.75 20.1116 32.7484 20.5946 32.6835C21.0561 32.6214 21.2536 32.5142 21.3839 32.3839C21.5142 32.2536 21.6214 32.0561 21.6835 31.5946C21.7484 31.1116 21.75 30.464 21.75 29.5C21.75 28.536 21.7484 27.8884 21.6835 27.4054C21.6214 26.9439 21.5142 26.7464 21.3839 26.6161C21.2536 26.4858 21.0561 26.3786 20.5946 26.3165C20.1116 26.2516 19.464 26.25 18.5 26.25C17.536 26.25 16.8884 26.2516 16.4054 26.3165Z" fill="black"/>
<path fill-rule="evenodd" clip-rule="evenodd" d="M29.448 13.75C28.5495 13.75 27.8003 13.7499 27.2055 13.8299C26.5777 13.9143 26.0109 14.1 25.5555 14.5555C25.1 15.0109 24.9143 15.5777 24.8299 16.2055C24.7499 16.8003 24.75 17.5495 24.75 18.448V18.552C24.75 19.4505 24.7499 20.1997 24.8299 20.7945C24.9143 21.4223 25.1 21.9891 25.5555 22.4445C26.0109 22.9 26.5777 23.0857 27.2055 23.1701C27.8003 23.2501 28.5495 23.25 29.448 23.25H29.552C30.4505 23.25 31.1997 23.2501 31.7945 23.1701C32.4223 23.0857 32.9891 22.9 33.4445 22.4445C33.9 21.9891 34.0857 21.4223 34.1701 20.7945C34.2501 20.1997 34.25 19.4505 34.25 18.552V18.448C34.25 17.5495 34.2501 16.8003 34.1701 16.2055C34.0857 15.5777 33.9 15.0109 33.4445 14.5555C32.9891 14.1 32.4223 13.9143 31.7945 13.8299C31.1997 13.7499 30.4505 13.75 29.552 13.75H29.448ZM26.6161 15.6161C26.7464 15.4858 26.9439 15.3786 27.4054 15.3165C27.8884 15.2516 28.536 15.25 29.5 15.25C30.464 15.25 31.1116 15.2516 31.5946 15.3165C32.0561 15.3786 32.2536 15.4858 32.3839 15.6161C32.5142 15.7464 32.6214 15.9439 32.6835 16.4054C32.7484 16.8884 32.75 17.536 32.75 18.5C32.75 19.464 32.7484 20.1116 32.6835 20.5946C32.6214 21.0561 32.5142 21.2536 32.3839 21.3839C32.2536 21.5142 32.0561 21.6214 31.5946 21.6835C31.1116 21.7484 30.464 21.75 29.5 21.75C28.536 21.75 27.8884 21.7484 27.4054 21.6835C26.9439 21.6214 26.7464 21.5142 26.6161 21.3839C26.4858 21.2536 26.3786 21.0561 26.3165 20.5946C26.2516 20.1116 26.25 19.464 26.25 18.5C26.25 17.536 26.2516 16.8884 26.3165 16.4054C26.3786 15.9439 26.4858 15.7464 26.6161 15.6161Z" fill="black"/>
</svg>
